<svg xmlns="http://www.w3.org/2000/svg" xmlns:xlink="http://www.w3.org/1999/xlink" width="1500" zoomAndPan="magnify" viewBox="0 0 1125 809.999993" height="1080" preserveAspectRatio="xMidYMid meet" version="1.0"><defs><filter x="0%" y="0%" width="100%" height="100%" id="ba6404763a"><feColorMatrix values="0 0 0 0 1 0 0 0 0 1 0 0 0 0 1 0 0 0 1 0" color-interpolation-filters="sRGB"/></filter><g/><mask id="f36314cb07"><g filter="url(#ba6404763a)"><rect x="-112.5" width="1350" fill="#000000" y="-80.999999" height="971.999992" fill-opacity="0.2"/></g></mask><clipPath id="7840b359ab"><path d="M 102 294 L 215 294 L 215 303 L 102 303 Z M 102 294 " clip-rule="nonzero"/></clipPath><clipPath id="2b3906af2c"><path d="M 0 94 L 14 94 L 14 206 L 0 206 Z M 0 94 " clip-rule="nonzero"/></clipPath><clipPath id="25cf0f005c"><path d="M 33 1.066406 L 42 1.066406 L 42 25 L 33 25 Z M 33 1.066406 " clip-rule="nonzero"/></clipPath><clipPath id="681ac27458"><rect x="0" width="308" y="0" height="303"/></clipPath><mask id="4dfad1c80d"><g filter="url(#ba6404763a)"><rect x="-112.5" width="1350" fill="#000000" y="-80.999999" height="971.999992" fill-opacity="0.2"/></g></mask><clipPath id="e2c879fdad"><path d="M 336 38 L 350 38 L 350 70 L 336 70 Z M 336 38 " clip-rule="nonzero"/></clipPath><clipPath id="645cb07e12"><path d="M 336 201 L 350 201 L 350 233 L 336 233 Z M 336 201 " clip-rule="nonzero"/></clipPath><clipPath id="f5e29b5ee7"><path d="M 119 0 L 151 0 L 151 15 L 119 15 Z M 119 0 " clip-rule="nonzero"/></clipPath><clipPath id="3f2b62dd6f"><path d="M 335 158 L 350 158 L 350 212 L 335 212 Z M 335 158 " clip-rule="nonzero"/></clipPath><clipPath id="c5ec0f5a3e"><path d="M 335 58 L 350 58 L 350 112 L 335 112 Z M 335 58 " clip-rule="nonzero"/></clipPath><clipPath id="0698048676"><path d="M 294 0 L 348 0 L 348 70 L 294 70 Z M 294 0 " clip-rule="nonzero"/></clipPath><clipPath id="2943b0db17"><path d="M 194 0 L 248 0 L 248 70 L 194 70 Z M 194 0 " clip-rule="nonzero"/></clipPath><clipPath id="378be9432b"><path d="M 266 381 L 275 381 L 275 404.269531 L 266 404.269531 Z M 266 381 " clip-rule="nonzero"/></clipPath><clipPath id="2fdf4814cc"><path d="M 1.324219 130 L 25 130 L 25 140 L 1.324219 140 Z M 1.324219 130 " clip-rule="nonzero"/></clipPath><clipPath id="5a7e53c513"><rect x="0" width="350" y="0" height="406"/></clipPath><mask id="caeaa1ffbd"><g filter="url(#ba6404763a)"><rect x="-112.5" width="1350" fill="#000000" y="-80.999999" height="971.999992" fill-opacity="0.2"/></g></mask><clipPath id="1c19909923"><path d="M 194 229 L 253 229 L 253 246 L 194 246 Z M 194 229 " clip-rule="nonzero"/></clipPath><clipPath id="cef8fd5fc2"><rect x="0" width="253" y="0" height="246"/></clipPath><mask id="ab6507b92d"><g filter="url(#ba6404763a)"><rect x="-112.5" width="1350" fill="#000000" y="-80.999999" height="971.999992" fill-opacity="0.2"/></g></mask><clipPath id="a0d8e2ce25"><path d="M 0 0 L 24 0 L 24 40 L 0 40 Z M 0 0 " clip-rule="nonzero"/></clipPath><clipPath id="3362f55ac4"><path d="M 0 167 L 2 167 L 2 228 L 0 228 Z M 0 167 " clip-rule="nonzero"/></clipPath><clipPath id="79e9c09d45"><rect x="0" width="308" y="0" height="364"/></clipPath></defs><rect x="-112.5" width="1350" fill="#ffffff" y="-80.999999" height="971.999992" fill-opacity="1"/><rect x="-112.5" width="1350" fill="#007391" y="-80.999999" height="971.999992" fill-opacity="1"/><g mask="url(#f36314cb07)"><g transform="matrix(1, 0, 0, 1, 0, 507)"><g clip-path="url(#681ac27458)"><path fill="#97d6cf" d="M 216.292969 96.371094 C 217.371094 96.371094 218.449219 95.941406 219.3125 95.078125 L 229.875 84.511719 C 231.492188 82.894531 231.492188 80.199219 229.875 78.476562 C 228.257812 76.859375 225.5625 76.859375 223.839844 78.476562 L 213.273438 89.039062 C 211.65625 90.65625 211.65625 93.351562 213.273438 95.078125 C 214.136719 95.941406 215.214844 96.371094 216.292969 96.371094 Z M 216.292969 96.371094 " fill-opacity="1" fill-rule="nonzero"/><path fill="#97d6cf" d="M 104.707031 203.753906 C 105.570312 204.617188 106.648438 205.046875 107.726562 205.046875 C 108.804688 205.046875 109.882812 204.617188 110.742188 203.753906 L 133.0625 181.4375 C 134.679688 179.820312 134.679688 177.125 133.0625 175.398438 C 131.445312 173.78125 128.75 173.78125 127.023438 175.398438 L 104.707031 197.714844 C 102.980469 199.332031 102.980469 202.027344 104.707031 203.753906 Z M 104.707031 203.753906 " fill-opacity="1" fill-rule="nonzero"/><path fill="#97d6cf" d="M 162.0625 150.710938 C 163.140625 150.710938 164.21875 150.277344 165.082031 149.414062 L 187.398438 127.097656 C 189.015625 125.480469 189.015625 122.785156 187.398438 121.0625 C 185.78125 119.445312 183.085938 119.445312 181.359375 121.0625 L 159.042969 143.378906 C 157.425781 144.996094 157.425781 147.691406 159.042969 149.414062 C 159.796875 150.277344 160.875 150.710938 162.0625 150.710938 Z M 162.0625 150.710938 " fill-opacity="1" fill-rule="nonzero"/><g clip-path="url(#7840b359ab)"><path fill="#97d6cf" d="M 105.890625 294.746094 C 104.921875 297.441406 103.84375 300.03125 102.65625 302.617188 L 210.792969 347.46875 L 214.027344 339.597656 Z M 105.890625 294.746094 " fill-opacity="1" fill-rule="nonzero"/></g><path fill="#97d6cf" d="M 214.027344 202.460938 L 210.792969 194.589844 L 102.65625 239.332031 C 103.84375 241.917969 104.921875 244.507812 105.890625 247.203125 Z M 214.027344 202.460938 " fill-opacity="1" fill-rule="nonzero"/><path fill="#97d6cf" d="M 113.871094 97.558594 L 106 94.324219 L 61.148438 202.460938 C 63.84375 203.429688 66.433594 204.507812 69.019531 205.695312 Z M 113.871094 97.558594 " fill-opacity="1" fill-rule="nonzero"/><g clip-path="url(#2b3906af2c)"><path fill="#97d6cf" d="M -31.136719 94.324219 L -39.007812 97.558594 L 5.84375 205.695312 C 8.429688 204.507812 11.015625 203.429688 13.710938 202.460938 Z M -31.136719 94.324219 " fill-opacity="1" fill-rule="nonzero"/></g><g clip-path="url(#25cf0f005c)"><path fill="#97d6cf" d="M 37.429688 24.890625 C 39.804688 24.890625 41.636719 22.953125 41.636719 20.6875 L 41.636719 5.703125 C 41.636719 3.328125 39.695312 1.496094 37.429688 1.496094 C 35.058594 1.496094 33.226562 3.4375 33.226562 5.703125 L 33.226562 20.578125 C 33.117188 22.953125 35.058594 24.890625 37.429688 24.890625 Z M 37.429688 24.890625 " fill-opacity="1" fill-rule="nonzero"/></g><path fill="#97d6cf" d="M 37.429688 100.898438 C 39.804688 100.898438 41.636719 98.960938 41.636719 96.695312 L 41.636719 65.429688 C 41.636719 63.058594 39.695312 61.226562 37.429688 61.226562 C 35.058594 61.226562 33.226562 63.164062 33.226562 65.429688 L 33.226562 96.695312 C 33.117188 98.960938 35.058594 100.898438 37.429688 100.898438 Z M 37.429688 100.898438 " fill-opacity="1" fill-rule="nonzero"/><path fill="#97d6cf" d="M 37.429688 176.90625 C 39.804688 176.90625 41.636719 174.96875 41.636719 172.703125 L 41.636719 141.4375 C 41.636719 139.066406 39.695312 137.234375 37.429688 137.234375 C 35.058594 137.234375 33.226562 139.171875 33.226562 141.4375 L 33.226562 172.703125 C 33.117188 174.96875 35.058594 176.90625 37.429688 176.90625 Z M 37.429688 176.90625 " fill-opacity="1" fill-rule="nonzero"/><path fill="#97d6cf" d="M 302.648438 266.714844 L 287.773438 266.714844 C 285.398438 266.714844 283.566406 268.65625 283.566406 270.921875 C 283.566406 273.183594 285.507812 275.125 287.773438 275.125 L 302.648438 275.125 C 305.023438 275.125 306.855469 273.183594 306.855469 270.921875 C 306.855469 268.65625 305.023438 266.714844 302.648438 266.714844 Z M 302.648438 266.714844 " fill-opacity="1" fill-rule="nonzero"/><path fill="#97d6cf" d="M 243.03125 266.714844 L 211.765625 266.714844 C 209.390625 266.714844 207.558594 268.65625 207.558594 270.921875 C 207.558594 273.183594 209.5 275.125 211.765625 275.125 L 243.03125 275.125 C 245.402344 275.125 247.234375 273.183594 247.234375 270.921875 C 247.234375 268.65625 245.402344 266.714844 243.03125 266.714844 Z M 243.03125 266.714844 " fill-opacity="1" fill-rule="nonzero"/><path fill="#97d6cf" d="M 135.757812 266.714844 C 133.382812 266.714844 131.550781 268.65625 131.550781 270.921875 C 131.550781 273.183594 133.492188 275.125 135.757812 275.125 L 167.023438 275.125 C 169.394531 275.125 171.226562 273.183594 171.226562 270.921875 C 171.226562 268.65625 169.285156 266.714844 167.023438 266.714844 Z M 135.757812 266.714844 " fill-opacity="1" fill-rule="nonzero"/><path fill="#97d6cf" d="M 67.941406 266.714844 C 67.726562 265.53125 67.511719 264.34375 67.296875 263.265625 C 66.539062 260.460938 65.460938 257.875 64.0625 255.394531 C 63.414062 254.425781 62.765625 253.347656 62.121094 252.484375 C 60.394531 250.21875 58.347656 248.171875 56.082031 246.445312 C 55.113281 245.691406 54.140625 245.046875 53.171875 244.507812 C 50.691406 243.105469 48.105469 241.917969 45.300781 241.273438 C 44.117188 240.949219 43.039062 240.734375 41.851562 240.625 C 40.449219 240.410156 39.046875 240.300781 37.648438 240.300781 C 36.246094 240.300781 34.734375 240.410156 33.441406 240.625 C 32.257812 240.839844 31.070312 241.054688 29.992188 241.273438 C 27.1875 242.027344 24.601562 243.105469 22.121094 244.507812 C 21.152344 245.152344 20.074219 245.800781 19.210938 246.445312 C 16.945312 248.171875 14.898438 250.21875 13.171875 252.484375 C 12.417969 253.453125 11.773438 254.425781 11.234375 255.394531 C 9.832031 257.875 8.644531 260.460938 8 263.265625 C 7.675781 264.453125 7.460938 265.53125 7.351562 266.714844 C 7.136719 268.117188 7.027344 269.519531 7.027344 270.921875 C 7.027344 272.320312 7.136719 273.832031 7.351562 275.125 C 7.566406 276.3125 7.78125 277.496094 8 278.574219 C 8.753906 281.378906 9.832031 283.964844 11.234375 286.445312 C 11.878906 287.414062 12.527344 288.492188 13.171875 289.355469 C 14.898438 291.621094 16.945312 293.667969 19.210938 295.394531 C 20.179688 296.148438 21.152344 296.796875 22.121094 297.335938 C 24.601562 298.734375 27.1875 299.921875 29.992188 300.570312 C 31.179688 300.890625 32.257812 301.109375 33.441406 301.214844 C 34.84375 301.429688 36.246094 301.539062 37.648438 301.539062 C 39.046875 301.539062 40.558594 301.429688 41.851562 301.214844 C 43.039062 301 44.222656 300.785156 45.300781 300.570312 C 48.105469 299.8125 50.691406 298.734375 53.171875 297.335938 C 54.140625 296.6875 55.21875 296.039062 56.082031 295.394531 C 58.347656 293.667969 60.394531 291.621094 62.121094 289.355469 C 62.875 288.386719 63.523438 287.414062 64.0625 286.445312 C 65.460938 283.964844 66.648438 281.378906 67.296875 278.574219 C 67.617188 277.390625 67.835938 276.3125 67.941406 275.125 C 68.15625 273.722656 68.265625 272.320312 68.265625 270.921875 C 68.265625 269.519531 68.15625 268.117188 67.941406 266.714844 Z M 55.976562 283.320312 C 55.976562 283.425781 55.867188 283.425781 55.867188 283.535156 C 54.25 285.90625 52.308594 287.847656 49.9375 289.464844 C 49.828125 289.464844 49.828125 289.570312 49.722656 289.570312 C 47.351562 291.082031 44.761719 292.265625 41.851562 292.804688 C 41.742188 292.804688 41.742188 292.804688 41.636719 292.804688 C 40.234375 293.023438 38.832031 293.238281 37.429688 293.238281 C 36.03125 293.238281 34.628906 293.128906 33.226562 292.804688 C 33.117188 292.804688 33.117188 292.804688 33.011719 292.804688 C 30.207031 292.265625 27.511719 291.082031 25.140625 289.570312 C 25.03125 289.570312 25.03125 289.464844 24.925781 289.464844 C 22.554688 287.847656 20.613281 285.90625 18.996094 283.535156 C 18.996094 283.425781 18.886719 283.425781 18.886719 283.320312 C 17.378906 280.945312 16.191406 278.359375 15.652344 275.449219 C 15.652344 275.339844 15.652344 275.339844 15.652344 275.234375 C 15.4375 273.832031 15.222656 272.429688 15.222656 271.027344 C 15.222656 269.625 15.328125 268.226562 15.652344 266.824219 C 15.652344 266.714844 15.652344 266.714844 15.652344 266.609375 C 16.191406 263.804688 17.378906 261.109375 18.886719 258.738281 C 18.886719 258.628906 18.996094 258.628906 18.996094 258.523438 C 20.613281 256.148438 22.554688 254.210938 24.925781 252.59375 C 25.03125 252.59375 25.03125 252.484375 25.140625 252.484375 C 27.511719 250.976562 30.101562 249.789062 33.011719 249.25 C 33.117188 249.25 33.117188 249.25 33.226562 249.25 C 34.628906 249.035156 36.03125 248.820312 37.429688 248.820312 C 38.832031 248.820312 40.234375 248.925781 41.636719 249.25 C 41.742188 249.25 41.742188 249.25 41.851562 249.25 C 44.65625 249.789062 47.351562 250.976562 49.722656 252.484375 C 49.828125 252.484375 49.828125 252.59375 49.9375 252.59375 C 52.308594 254.210938 54.25 256.148438 55.867188 258.523438 C 55.867188 258.628906 55.976562 258.628906 55.976562 258.738281 C 57.484375 261.109375 58.671875 263.695312 59.210938 266.609375 C 59.210938 266.714844 59.210938 266.714844 59.210938 266.824219 C 59.425781 268.226562 59.640625 269.625 59.640625 271.027344 C 59.640625 272.429688 59.53125 273.832031 59.210938 275.234375 C 59.210938 275.339844 59.210938 275.339844 59.210938 275.449219 C 58.671875 278.359375 57.59375 280.945312 55.976562 283.320312 Z M 55.976562 283.320312 " fill-opacity="1" fill-rule="nonzero"/></g></g></g><g mask="url(#4dfad1c80d)"><g transform="matrix(1, 0, 0, 1, 775, 0.000000000000039746)"><g clip-path="url(#5a7e53c513)"><path fill="#97d6cf" d="M 143.097656 256.785156 L 120.78125 279.101562 C 119.164062 280.71875 119.164062 283.414062 120.78125 285.136719 C 121.644531 286 122.722656 286.433594 123.800781 286.433594 C 124.878906 286.433594 125.957031 286 126.820312 285.136719 L 149.136719 262.820312 C 150.753906 261.203125 150.753906 258.507812 149.136719 256.785156 C 147.519531 255.058594 144.824219 255.058594 143.097656 256.785156 Z M 143.097656 256.785156 " fill-opacity="1" fill-rule="nonzero"/><path fill="#97d6cf" d="M 203.472656 202.445312 C 201.855469 200.828125 199.160156 200.828125 197.4375 202.445312 L 175.117188 224.761719 C 173.5 226.378906 173.5 229.074219 175.117188 230.800781 C 175.980469 231.664062 177.058594 232.09375 178.136719 232.09375 C 179.214844 232.09375 180.292969 231.664062 181.15625 230.800781 L 203.472656 208.484375 C 205.089844 206.757812 205.089844 204.0625 203.472656 202.445312 Z M 203.472656 202.445312 " fill-opacity="1" fill-rule="nonzero"/><g clip-path="url(#e2c879fdad)"><path fill="#97d6cf" d="M 338.023438 67.894531 C 338.886719 68.757812 339.964844 69.191406 341.042969 69.191406 C 342.121094 69.191406 343.199219 68.757812 344.0625 67.894531 L 366.378906 45.578125 C 367.996094 43.960938 367.996094 41.265625 366.378906 39.542969 C 364.761719 37.925781 362.066406 37.925781 360.339844 39.542969 L 338.023438 61.859375 C 336.296875 63.476562 336.296875 66.171875 338.023438 67.894531 Z M 338.023438 67.894531 " fill-opacity="1" fill-rule="nonzero"/></g><path fill="#97d6cf" d="M 88.761719 311.011719 L 78.195312 321.578125 C 76.578125 323.195312 76.578125 325.890625 78.195312 327.617188 C 79.058594 328.480469 80.136719 328.910156 81.214844 328.910156 C 82.292969 328.910156 83.371094 328.480469 84.234375 327.617188 L 94.796875 317.050781 C 96.414062 315.433594 96.414062 312.738281 94.796875 311.011719 C 93.179688 309.394531 90.484375 309.394531 88.761719 311.011719 Z M 88.761719 311.011719 " fill-opacity="1" fill-rule="nonzero"/><g clip-path="url(#645cb07e12)"><path fill="#97d6cf" d="M 344.0625 202.445312 C 342.445312 200.828125 339.75 200.828125 338.023438 202.445312 C 336.40625 204.0625 336.40625 206.757812 338.023438 208.484375 L 360.339844 230.800781 C 361.203125 231.664062 362.28125 232.09375 363.359375 232.09375 C 364.4375 232.09375 365.515625 231.664062 366.378906 230.800781 C 367.996094 229.183594 367.996094 226.488281 366.378906 224.761719 Z M 344.0625 202.445312 " fill-opacity="1" fill-rule="nonzero"/></g><path fill="#97d6cf" d="M 197.4375 67.894531 C 198.296875 68.757812 199.375 69.191406 200.453125 69.191406 C 201.53125 69.191406 202.609375 68.757812 203.472656 67.894531 C 205.089844 66.277344 205.089844 63.582031 203.472656 61.859375 L 181.15625 39.542969 C 179.539062 37.925781 176.84375 37.925781 175.117188 39.542969 C 173.5 41.160156 173.5 43.855469 175.117188 45.578125 Z M 197.4375 67.894531 " fill-opacity="1" fill-rule="nonzero"/><g clip-path="url(#f5e29b5ee7)"><path fill="#97d6cf" d="M 143.097656 13.558594 C 143.960938 14.421875 145.039062 14.851562 146.117188 14.851562 C 147.195312 14.851562 148.273438 14.421875 149.136719 13.558594 C 150.753906 11.941406 150.753906 9.246094 149.136719 7.519531 L 126.820312 -14.796875 C 125.203125 -16.414062 122.507812 -16.414062 120.78125 -14.796875 C 119.164062 -13.179688 119.164062 -10.484375 120.78125 -8.757812 Z M 143.097656 13.558594 " fill-opacity="1" fill-rule="nonzero"/></g><g clip-path="url(#3f2b62dd6f)"><path fill="#97d6cf" d="M 339.210938 158.890625 C 338.238281 161.585938 337.160156 164.171875 335.976562 166.761719 L 444.109375 211.609375 L 447.34375 203.738281 Z M 339.210938 158.890625 " fill-opacity="1" fill-rule="nonzero"/></g><path fill="#97d6cf" d="M 97.277344 58.730469 L 94.042969 66.601562 L 202.179688 111.453125 C 203.148438 108.757812 204.226562 106.167969 205.414062 103.582031 Z M 97.277344 58.730469 " fill-opacity="1" fill-rule="nonzero"/><g clip-path="url(#c5ec0f5a3e)"><path fill="#97d6cf" d="M 447.34375 66.601562 L 444.109375 58.730469 L 335.976562 103.472656 C 337.160156 106.0625 338.238281 108.648438 339.210938 111.34375 Z M 447.34375 66.601562 " fill-opacity="1" fill-rule="nonzero"/></g><path fill="#97d6cf" d="M 94.042969 203.738281 L 97.277344 211.609375 L 205.414062 166.761719 C 204.226562 164.171875 203.148438 161.585938 202.179688 158.890625 Z M 94.042969 203.738281 " fill-opacity="1" fill-rule="nonzero"/><g clip-path="url(#0698048676)"><path fill="#97d6cf" d="M 347.1875 -38.300781 L 339.316406 -41.535156 L 294.46875 66.601562 C 297.164062 67.574219 299.75 68.652344 302.335938 69.835938 Z M 347.1875 -38.300781 " fill-opacity="1" fill-rule="nonzero"/></g><path fill="#97d6cf" d="M 194.308594 308.535156 L 202.179688 311.769531 L 247.03125 203.632812 C 244.335938 202.660156 241.746094 201.582031 239.160156 200.398438 Z M 194.308594 308.535156 " fill-opacity="1" fill-rule="nonzero"/><path fill="#97d6cf" d="M 339.316406 311.769531 L 347.1875 308.535156 L 302.335938 200.398438 C 299.75 201.582031 297.164062 202.660156 294.46875 203.632812 Z M 339.316406 311.769531 " fill-opacity="1" fill-rule="nonzero"/><g clip-path="url(#2943b0db17)"><path fill="#97d6cf" d="M 202.179688 -41.535156 L 194.308594 -38.300781 L 239.160156 69.835938 C 241.746094 68.652344 244.335938 67.574219 247.03125 66.601562 Z M 202.179688 -41.535156 " fill-opacity="1" fill-rule="nonzero"/></g><path fill="#97d6cf" d="M 270.75 305.300781 C 268.375 305.300781 266.542969 307.238281 266.542969 309.503906 L 266.542969 340.769531 C 266.542969 343.140625 268.484375 344.972656 270.75 344.972656 C 273.121094 344.972656 274.953125 343.035156 274.953125 340.769531 L 274.953125 309.503906 C 274.953125 307.132812 273.121094 305.300781 270.75 305.300781 Z M 270.75 305.300781 " fill-opacity="1" fill-rule="nonzero"/><path fill="#97d6cf" d="M 270.75 41.050781 C 273.121094 41.050781 274.953125 39.109375 274.953125 36.847656 L 274.953125 5.582031 C 274.953125 3.207031 273.011719 1.375 270.75 1.375 C 268.375 1.375 266.542969 3.316406 266.542969 5.582031 L 266.542969 36.847656 C 266.4375 39.109375 268.375 41.050781 270.75 41.050781 Z M 270.75 41.050781 " fill-opacity="1" fill-rule="nonzero"/><path fill="#97d6cf" d="M 270.75 229.292969 C 268.375 229.292969 266.542969 231.230469 266.542969 233.496094 L 266.542969 264.761719 C 266.542969 267.132812 268.484375 268.964844 270.75 268.964844 C 273.121094 268.964844 274.953125 267.027344 274.953125 264.761719 L 274.953125 233.496094 C 274.953125 231.125 273.121094 229.292969 270.75 229.292969 Z M 270.75 229.292969 " fill-opacity="1" fill-rule="nonzero"/><g clip-path="url(#378be9432b)"><path fill="#97d6cf" d="M 270.75 381.308594 C 268.375 381.308594 266.542969 383.246094 266.542969 385.511719 L 266.542969 400.390625 C 266.542969 402.761719 268.484375 404.59375 270.75 404.59375 C 273.121094 404.59375 274.953125 402.652344 274.953125 400.390625 L 274.953125 385.511719 C 274.953125 383.140625 273.121094 381.308594 270.75 381.308594 Z M 270.75 381.308594 " fill-opacity="1" fill-rule="nonzero"/></g><path fill="#97d6cf" d="M 100.621094 135.171875 C 100.621094 132.800781 98.679688 130.964844 96.414062 130.964844 L 65.148438 130.964844 C 62.777344 130.964844 60.945312 132.90625 60.945312 135.171875 C 60.945312 137.433594 62.886719 139.375 65.148438 139.375 L 96.414062 139.375 C 98.679688 139.375 100.621094 137.542969 100.621094 135.171875 Z M 100.621094 135.171875 " fill-opacity="1" fill-rule="nonzero"/><path fill="#97d6cf" d="M 172.316406 139.375 C 174.6875 139.375 176.519531 137.433594 176.519531 135.171875 C 176.519531 132.90625 174.578125 130.964844 172.316406 130.964844 L 141.050781 130.964844 C 138.679688 130.964844 136.84375 132.90625 136.84375 135.171875 C 136.84375 137.433594 138.785156 139.375 141.050781 139.375 Z M 172.316406 139.375 " fill-opacity="1" fill-rule="nonzero"/><g clip-path="url(#2fdf4814cc)"><path fill="#97d6cf" d="M 20.300781 130.859375 L 5.421875 130.859375 C 3.050781 130.859375 1.21875 132.800781 1.21875 135.0625 C 1.21875 137.328125 3.15625 139.269531 5.421875 139.269531 L 20.300781 139.269531 C 22.671875 139.269531 24.503906 137.328125 24.503906 135.0625 C 24.503906 132.800781 22.671875 130.859375 20.300781 130.859375 Z M 20.300781 130.859375 " fill-opacity="1" fill-rule="nonzero"/></g><path fill="#97d6cf" d="M 301.257812 130.859375 C 301.042969 129.671875 300.828125 128.488281 300.613281 127.410156 C 299.859375 124.605469 298.78125 122.019531 297.378906 119.539062 C 296.730469 118.566406 296.085938 117.488281 295.4375 116.628906 C 293.710938 114.363281 291.664062 112.316406 289.398438 110.589844 C 288.429688 109.835938 287.460938 109.1875 286.488281 108.648438 C 284.007812 107.246094 281.421875 106.0625 278.617188 105.414062 C 277.433594 105.089844 276.355469 104.875 275.167969 104.769531 C 273.765625 104.550781 272.367188 104.445312 270.964844 104.445312 C 269.5625 104.445312 268.054688 104.550781 266.757812 104.769531 C 265.574219 104.984375 264.386719 105.199219 263.308594 105.414062 C 260.507812 106.167969 257.917969 107.246094 255.4375 108.648438 C 254.46875 109.296875 253.390625 109.941406 252.527344 110.589844 C 250.265625 112.316406 248.214844 114.363281 246.492188 116.628906 C 245.734375 117.597656 245.089844 118.566406 244.550781 119.539062 C 243.148438 122.019531 241.960938 124.605469 241.316406 127.410156 C 240.992188 128.59375 240.777344 129.671875 240.667969 130.859375 C 240.453125 132.261719 240.34375 133.660156 240.34375 135.0625 C 240.34375 136.464844 240.453125 137.972656 240.667969 139.269531 C 240.882812 140.453125 241.101562 141.640625 241.316406 142.71875 C 242.070312 145.519531 243.148438 148.109375 244.550781 150.589844 C 245.195312 151.558594 245.84375 152.636719 246.492188 153.5 C 248.214844 155.761719 250.265625 157.8125 252.527344 159.535156 C 253.5 160.292969 254.46875 160.9375 255.4375 161.476562 C 257.917969 162.878906 260.507812 164.066406 263.308594 164.710938 C 264.496094 165.035156 265.574219 165.25 266.757812 165.359375 C 268.160156 165.574219 269.5625 165.683594 270.964844 165.683594 C 272.367188 165.683594 273.875 165.574219 275.167969 165.359375 C 276.355469 165.144531 277.539062 164.925781 278.617188 164.710938 C 281.421875 163.957031 284.007812 162.878906 286.488281 161.476562 C 287.460938 160.832031 288.539062 160.183594 289.398438 159.535156 C 291.664062 157.8125 293.710938 155.761719 295.4375 153.5 C 296.191406 152.527344 296.839844 151.558594 297.378906 150.589844 C 298.78125 148.109375 299.964844 145.519531 300.613281 142.71875 C 300.9375 141.53125 301.152344 140.453125 301.257812 139.269531 C 301.476562 137.867188 301.582031 136.464844 301.582031 135.0625 C 301.582031 133.660156 301.476562 132.261719 301.257812 130.859375 Z M 289.292969 147.460938 C 289.292969 147.570312 289.183594 147.570312 289.183594 147.675781 C 287.566406 150.050781 285.625 151.988281 283.253906 153.605469 C 283.148438 153.605469 283.148438 153.714844 283.039062 153.714844 C 280.667969 155.222656 278.078125 156.410156 275.167969 156.949219 C 275.0625 156.949219 275.0625 156.949219 274.953125 156.949219 C 273.550781 157.164062 272.148438 157.378906 270.75 157.378906 C 269.347656 157.378906 267.945312 157.273438 266.542969 156.949219 C 266.4375 156.949219 266.4375 156.949219 266.328125 156.949219 C 263.523438 156.410156 260.828125 155.222656 258.457031 153.714844 C 258.351562 153.714844 258.351562 153.605469 258.242188 153.605469 C 255.871094 151.988281 253.929688 150.050781 252.3125 147.675781 C 252.3125 147.570312 252.203125 147.570312 252.203125 147.460938 C 250.695312 145.089844 249.507812 142.503906 248.96875 139.589844 C 248.96875 139.484375 248.96875 139.484375 248.96875 139.375 C 248.753906 137.972656 248.539062 136.574219 248.539062 135.171875 C 248.539062 133.769531 248.648438 132.367188 248.96875 130.964844 C 248.96875 130.859375 248.96875 130.859375 248.96875 130.75 C 249.507812 127.949219 250.695312 125.253906 252.203125 122.878906 C 252.203125 122.773438 252.3125 122.773438 252.3125 122.664062 C 253.929688 120.292969 255.871094 118.351562 258.242188 116.734375 C 258.351562 116.734375 258.351562 116.628906 258.457031 116.628906 C 260.828125 115.117188 263.417969 113.933594 266.328125 113.394531 C 266.4375 113.394531 266.4375 113.394531 266.542969 113.394531 C 267.945312 113.175781 269.347656 112.960938 270.75 112.960938 C 272.148438 112.960938 273.550781 113.070312 274.953125 113.394531 C 275.0625 113.394531 275.0625 113.394531 275.167969 113.394531 C 277.972656 113.933594 280.667969 115.117188 283.039062 116.628906 C 283.148438 116.628906 283.148438 116.734375 283.253906 116.734375 C 285.625 118.351562 287.566406 120.292969 289.183594 122.664062 C 289.183594 122.773438 289.292969 122.773438 289.292969 122.878906 C 290.800781 125.253906 291.988281 127.839844 292.527344 130.75 C 292.527344 130.859375 292.527344 130.859375 292.527344 130.964844 C 292.742188 132.367188 292.957031 133.769531 292.957031 135.171875 C 292.957031 136.574219 292.851562 137.972656 292.527344 139.375 C 292.527344 139.484375 292.527344 139.484375 292.527344 139.589844 C 291.988281 142.503906 290.910156 145.089844 289.292969 147.460938 Z M 289.292969 147.460938 " fill-opacity="1" fill-rule="nonzero"/></g></g></g><g mask="url(#caeaa1ffbd)"><g transform="matrix(1, 0, 0, 1, 872, 564)"><g clip-path="url(#cef8fd5fc2)"><g clip-path="url(#1c19909923)"><path fill="#97d6cf" d="M 198.027344 290.210938 C 184.761719 255.214844 206.734375 214.867188 248.121094 234.253906 C 258.648438 247.308594 260.40625 278.105469 245.257812 287.347656 C 228.589844 285.652344 214.144531 300.605469 198.027344 290.210938 Z M 238.101562 250.035156 C 234.09375 246.40625 230.828125 242.023438 223.796875 241.425781 C 200.03125 256.097656 242.492188 287.800781 238.101562 250.035156 Z M 238.101562 250.035156 " fill-opacity="1" fill-rule="evenodd"/></g><path fill="#97d6cf" d="M 140.777344 224.210938 C 93.320312 233.804688 111.011719 130.765625 159.386719 161.078125 C 174.117188 170.308594 179.175781 200.667969 163.679688 214.167969 C 157.335938 219.691406 148.589844 218.535156 140.777344 224.210938 Z M 146.503906 195.515625 C 146.320312 198.089844 147.921875 198.875 150.796875 198.378906 C 160.425781 183.097656 150.214844 163.902344 136.484375 168.253906 C 121.003906 173.148438 122.996094 200.003906 137.917969 208.425781 C 140.605469 203.957031 144.054688 200.238281 146.503906 195.515625 Z M 146.503906 195.515625 " fill-opacity="1" fill-rule="evenodd"/><path fill="#97d6cf" d="M 6.230469 206.992188 C 9.109375 188.835938 24.753906 183.46875 30.5625 168.257812 C 43.152344 163.488281 48.785156 171.164062 57.761719 173.992188 C 62.902344 197.171875 55.1875 225.136719 30.5625 225.652344 C 24.640625 225.777344 22.296875 222.214844 16.253906 221.347656 C 12.859375 216.605469 10.773438 210.574219 6.230469 206.992188 Z M 6.230469 206.992188 " fill-opacity="1" fill-rule="evenodd"/><path fill="#97d6cf" d="M 196.59375 119.472656 C 194.234375 86.234375 238.144531 76.492188 249.558594 103.683594 C 255.855469 144.382812 213.054688 141.261719 196.59375 119.472656 Z M 220.925781 103.6875 C 223.796875 107.03125 224.433594 112.613281 229.515625 113.738281 C 231.558594 106.359375 226.265625 98.90625 220.925781 103.6875 Z M 220.925781 103.6875 " fill-opacity="1" fill-rule="evenodd"/><path fill="#97d6cf" d="M 116.445312 95.082031 C 102.242188 95.449219 96.972656 86.855469 87.820312 82.167969 C 83.679688 56.644531 93.128906 32.65625 116.445312 33.386719 C 145.566406 34.300781 170.765625 79.839844 146.503906 96.519531 C 139.109375 101.589844 123.125 105.613281 116.445312 95.082031 Z M 115.007812 46.296875 C 96.460938 49.148438 111.300781 80.253906 129.324219 77.863281 C 139.242188 68.484375 127.503906 44.378906 115.007812 46.296875 Z M 115.007812 46.296875 " fill-opacity="1" fill-rule="evenodd"/><path fill="#97d6cf" d="M 230.953125 36.253906 C 224.875 39.542969 206 34.910156 203.75 27.644531 C 200.464844 17.011719 211.660156 4.109375 218.0625 3.253906 C 228.40625 1.867188 251.292969 25.238281 230.953125 36.253906 Z M 230.953125 36.253906 " fill-opacity="1" fill-rule="evenodd"/></g></g></g><g mask="url(#ab6507b92d)"><g transform="matrix(1, 0, 0, 1, 0, 0.000000000000039746)"><g clip-path="url(#79e9c09d45)"><g clip-path="url(#a0d8e2ce25)"><path fill="#97d6cf" d="M -70.605469 -18.410156 C -67.046875 -26.535156 -52.921875 -31 -43.40625 -28.453125 C -20.796875 -47.78125 17.597656 -39.710938 22.4375 -12.671875 C 27.117188 13.542969 7.71875 36.625 -13.347656 38.988281 C -50.667969 43.160156 -60.449219 9.316406 -70.605469 -18.410156 Z M -9.054688 23.199219 C 5.117188 6.273438 -10.667969 -21.679688 -30.527344 -16.976562 C -31.6875 -12.75 -29.847656 -5.246094 -37.679688 -2.628906 C -33.5 10.929688 -28.296875 29.308594 -9.054688 23.199219 Z M -9.054688 23.199219 " fill-opacity="1" fill-rule="evenodd"/></g><path fill="#97d6cf" d="M 189.898438 34.683594 C 212.617188 43.746094 198.707031 77.390625 175.585938 76.285156 C 154.425781 75.28125 141.96875 35.417969 169.863281 31.8125 C 176.761719 30.917969 180.664062 38.550781 189.898438 34.683594 Z M 189.898438 34.683594 " fill-opacity="1" fill-rule="evenodd"/><path fill="#97d6cf" d="M 295.816406 37.546875 C 312.046875 52.203125 301.035156 89.519531 272.917969 82.023438 C 257.101562 77.804688 255.902344 54.601562 268.617188 41.84375 C 281.515625 44.261719 283.078125 35.296875 295.816406 37.546875 Z M 271.484375 57.632812 C 274.59375 57.386719 272.128906 62.722656 272.917969 64.800781 C 276.476562 64.578125 277.339844 67.054688 280.066406 67.671875 C 283.566406 65.152344 283.449219 59.019531 281.5 54.757812 C 277.3125 56.777344 274.46875 53.121094 271.484375 57.632812 Z M 271.484375 57.632812 " fill-opacity="1" fill-rule="evenodd"/><path fill="#97d6cf" d="M 92.570312 61.9375 C 105.835938 96.933594 83.863281 137.28125 42.472656 117.894531 C 31.949219 104.835938 30.1875 74.042969 45.335938 64.800781 C 62.007812 66.492188 76.449219 51.542969 92.570312 61.9375 Z M 52.492188 102.113281 C 56.5 105.738281 59.769531 110.121094 66.800781 110.71875 C 90.566406 96.050781 48.105469 64.347656 52.492188 102.113281 Z M 52.492188 102.113281 " fill-opacity="1" fill-rule="evenodd"/><path fill="#97d6cf" d="M 149.816406 127.9375 C 197.277344 118.34375 179.582031 221.382812 131.210938 191.066406 C 116.480469 181.835938 111.421875 151.480469 126.917969 137.980469 C 133.261719 132.457031 142.003906 133.609375 149.816406 127.9375 Z M 144.09375 156.632812 C 144.277344 154.054688 142.671875 153.273438 139.796875 153.769531 C 130.171875 169.050781 140.382812 188.246094 154.109375 183.894531 C 169.59375 178.996094 167.601562 152.144531 152.679688 143.71875 C 149.992188 148.191406 146.542969 151.910156 144.09375 156.632812 Z M 144.09375 156.632812 " fill-opacity="1" fill-rule="evenodd"/><path fill="#97d6cf" d="M 284.367188 145.15625 C 281.488281 163.308594 265.84375 168.679688 260.035156 183.886719 C 247.445312 188.65625 241.808594 180.980469 232.832031 178.15625 C 227.691406 154.976562 235.410156 127.011719 260.035156 126.496094 C 265.957031 126.371094 268.300781 129.933594 274.34375 130.800781 C 277.734375 135.542969 279.824219 141.574219 284.367188 145.15625 Z M 284.367188 145.15625 " fill-opacity="1" fill-rule="evenodd"/><g clip-path="url(#3362f55ac4)"><path fill="#97d6cf" d="M -19.074219 168.109375 C -7.492188 178.984375 14.195312 210.414062 -7.621094 224.066406 C -19.246094 231.34375 -33.175781 223.875 -46.265625 219.757812 C -63.984375 200.878906 -50.300781 163.691406 -19.074219 168.109375 Z M -19.074219 168.109375 " fill-opacity="1" fill-rule="evenodd"/></g><path fill="#97d6cf" d="M 94 232.675781 C 96.363281 265.914062 52.453125 275.652344 41.035156 248.464844 C 34.738281 207.765625 77.542969 210.886719 94 232.675781 Z M 69.667969 248.457031 C 66.800781 245.117188 66.164062 239.53125 61.082031 238.410156 C 59.035156 245.785156 64.332031 253.242188 69.667969 248.457031 Z M 69.667969 248.457031 " fill-opacity="1" fill-rule="evenodd"/><path fill="#97d6cf" d="M 174.148438 257.066406 C 188.355469 256.695312 193.621094 265.292969 202.777344 269.980469 C 206.914062 295.5 197.46875 319.492188 174.148438 318.761719 C 145.027344 317.847656 119.832031 272.304688 144.09375 255.625 C 151.488281 250.558594 167.46875 246.535156 174.148438 257.066406 Z M 175.585938 305.847656 C 194.132812 302.996094 179.296875 271.894531 161.273438 274.285156 C 151.355469 283.664062 163.09375 307.769531 175.585938 305.847656 Z M 175.585938 305.847656 " fill-opacity="1" fill-rule="evenodd"/><path fill="#97d6cf" d="M 59.644531 315.894531 C 65.722656 312.605469 84.597656 317.238281 86.84375 324.5 C 90.132812 335.136719 78.9375 348.039062 72.53125 348.894531 C 62.191406 350.28125 39.300781 326.910156 59.644531 315.894531 Z M 59.644531 315.894531 " fill-opacity="1" fill-rule="evenodd"/></g></g></g><g fill="#e5cc4d" fill-opacity="1"><g transform="translate(160.951866, 514.58332)"><g><path d="M 59.78125 -85.9375 L 82 -85.9375 C 82.90625 -85.9375 83.6875 -85.609375 84.34375 -84.953125 C 85 -84.296875 85.328125 -83.519531 85.328125 -82.625 L 85.328125 -3.3125 C 85.328125 -2.414062 85 -1.640625 84.34375 -0.984375 C 83.6875 -0.328125 82.90625 0 82 0 L 62.609375 0 C 60.484375 0 58.804688 -0.941406 57.578125 -2.828125 L 36.828125 -34.125 L 36.828125 -3.3125 C 36.828125 -2.414062 36.5 -1.640625 35.84375 -0.984375 C 35.1875 -0.328125 34.410156 0 33.515625 0 L 11.296875 0 C 10.390625 0 9.609375 -0.328125 8.953125 -0.984375 C 8.304688 -1.640625 7.984375 -2.414062 7.984375 -3.3125 L 7.984375 -82.625 C 7.984375 -83.519531 8.304688 -84.296875 8.953125 -84.953125 C 9.609375 -85.609375 10.390625 -85.9375 11.296875 -85.9375 L 30.6875 -85.9375 C 32.976562 -85.9375 34.65625 -84.992188 35.71875 -83.109375 L 56.46875 -49.109375 L 56.46875 -82.625 C 56.46875 -83.519531 56.796875 -84.296875 57.453125 -84.953125 C 58.109375 -85.609375 58.882812 -85.9375 59.78125 -85.9375 Z M 59.78125 -85.9375 "/></g></g></g><g fill="#e5cc4d" fill-opacity="1"><g transform="translate(254.244608, 514.58332)"><g><path d="M 37.4375 -23.9375 L 75.25 -23.9375 C 76.15625 -23.9375 76.929688 -23.609375 77.578125 -22.953125 C 78.234375 -22.296875 78.5625 -21.519531 78.5625 -20.625 L 78.5625 -3.3125 C 78.5625 -2.414062 78.234375 -1.640625 77.578125 -0.984375 C 76.929688 -0.328125 76.15625 0 75.25 0 L 11.296875 0 C 10.390625 0 9.609375 -0.328125 8.953125 -0.984375 C 8.304688 -1.640625 7.984375 -2.414062 7.984375 -3.3125 L 7.984375 -82.625 C 7.984375 -83.519531 8.304688 -84.296875 8.953125 -84.953125 C 9.609375 -85.609375 10.390625 -85.9375 11.296875 -85.9375 L 74.265625 -85.9375 C 75.171875 -85.9375 75.953125 -85.609375 76.609375 -84.953125 C 77.265625 -84.296875 77.59375 -83.519531 77.59375 -82.625 L 77.59375 -65.3125 C 77.59375 -64.40625 77.265625 -63.625 76.609375 -62.96875 C 75.953125 -62.320312 75.171875 -62 74.265625 -62 L 37.4375 -62 L 37.4375 -54.265625 L 71.578125 -54.265625 C 72.472656 -54.265625 73.25 -53.9375 73.90625 -53.28125 C 74.5625 -52.625 74.890625 -51.847656 74.890625 -50.953125 L 74.890625 -34.984375 C 74.890625 -34.085938 74.5625 -33.3125 73.90625 -32.65625 C 73.25 -32 72.472656 -31.671875 71.578125 -31.671875 L 37.4375 -31.671875 Z M 37.4375 -23.9375 "/></g></g></g><g fill="#e5cc4d" fill-opacity="1"><g transform="translate(339.558362, 514.58332)"><g><path d="M 38.796875 0 L 21.234375 0 C 19.679688 0 18.394531 -0.46875 17.375 -1.40625 C 16.351562 -2.351562 15.757812 -3.441406 15.59375 -4.671875 L 4.296875 -82.859375 L 4.296875 -83.234375 C 4.296875 -83.972656 4.5625 -84.609375 5.09375 -85.140625 C 5.625 -85.671875 6.257812 -85.9375 7 -85.9375 L 29.828125 -85.9375 C 32.535156 -85.9375 34.007812 -84.832031 34.25 -82.625 L 38.421875 -48 L 43.453125 -63.34375 C 44.273438 -65.71875 45.671875 -66.90625 47.640625 -66.90625 L 60.15625 -66.90625 C 62.113281 -66.90625 63.503906 -65.71875 64.328125 -63.34375 L 69.359375 -48.125 L 73.53125 -82.625 C 73.78125 -84.832031 75.253906 -85.9375 77.953125 -85.9375 L 100.796875 -85.9375 C 101.523438 -85.9375 102.15625 -85.671875 102.6875 -85.140625 C 103.21875 -84.609375 103.484375 -83.972656 103.484375 -83.234375 L 103.484375 -82.859375 L 92.203125 -4.671875 C 92.035156 -3.441406 91.4375 -2.351562 90.40625 -1.40625 C 89.382812 -0.46875 88.097656 0 86.546875 0 L 69 0 C 66.457031 0 64.773438 -1.101562 63.953125 -3.3125 L 53.890625 -28.484375 L 43.828125 -3.3125 C 43.003906 -1.101562 41.328125 0 38.796875 0 Z M 38.796875 0 "/></g></g></g><g fill="#e5cc4d" fill-opacity="1"><g transform="translate(447.336027, 514.58332)"><g/></g></g><g fill="#e5cc4d" fill-opacity="1"><g transform="translate(482.934568, 514.58332)"><g><path d="M 52.71875 -55.25 C 53.582031 -56.3125 54.015625 -57.578125 54.015625 -59.046875 C 54.015625 -60.523438 53.582031 -61.851562 52.71875 -63.03125 C 51.863281 -64.21875 50.617188 -64.8125 48.984375 -64.8125 L 38.671875 -64.8125 L 38.671875 -53.65625 L 48.984375 -53.65625 C 50.617188 -53.65625 51.863281 -54.1875 52.71875 -55.25 Z M 38.671875 -33.140625 L 38.671875 -21.109375 L 50.09375 -21.109375 C 51.96875 -21.109375 53.375 -21.742188 54.3125 -23.015625 C 55.257812 -24.285156 55.734375 -25.695312 55.734375 -27.25 L 55.734375 -27.375 C 55.734375 -28.925781 55.222656 -30.273438 54.203125 -31.421875 C 53.179688 -32.566406 51.8125 -33.140625 50.09375 -33.140625 Z M 53.28125 0 L 11.296875 0 C 10.390625 0 9.609375 -0.328125 8.953125 -0.984375 C 8.304688 -1.640625 7.984375 -2.414062 7.984375 -3.3125 L 7.984375 -82.625 C 7.984375 -83.519531 8.304688 -84.296875 8.953125 -84.953125 C 9.609375 -85.609375 10.390625 -85.9375 11.296875 -85.9375 L 52.046875 -85.9375 C 63.671875 -85.9375 72.242188 -83.828125 77.765625 -79.609375 C 83.296875 -75.398438 86.0625 -69.035156 86.0625 -60.515625 L 86.0625 -60.15625 C 86.0625 -56.632812 85.035156 -53.503906 82.984375 -50.765625 C 80.941406 -48.023438 78.691406 -46.039062 76.234375 -44.8125 C 79.503906 -43.5 82.265625 -41.1875 84.515625 -37.875 C 86.773438 -34.5625 87.90625 -30.941406 87.90625 -27.015625 C 87.90625 -9.003906 76.363281 0 53.28125 0 Z M 53.28125 0 "/></g></g></g><g fill="#e5cc4d" fill-opacity="1"><g transform="translate(575.736272, 514.58332)"><g><path d="M 16.75 -78.078125 C 24.238281 -84.128906 34.160156 -87.15625 46.515625 -87.15625 C 58.878906 -87.15625 68.804688 -84.109375 76.296875 -78.015625 C 83.785156 -71.921875 87.53125 -63.347656 87.53125 -52.296875 L 87.53125 -33.140625 C 87.53125 -21.929688 83.828125 -13.398438 76.421875 -7.546875 C 69.015625 -1.691406 59.050781 1.234375 46.53125 1.234375 C 34.007812 1.234375 24.046875 -1.691406 16.640625 -7.546875 C 9.234375 -13.398438 5.53125 -21.929688 5.53125 -33.140625 L 5.53125 -52.296875 C 5.53125 -63.429688 9.269531 -72.023438 16.75 -78.078125 Z M 39.890625 -25.171875 C 41.535156 -23.535156 43.75 -22.71875 46.53125 -22.71875 C 49.3125 -22.71875 51.519531 -23.535156 53.15625 -25.171875 C 54.789062 -26.804688 55.609375 -29.300781 55.609375 -32.65625 L 55.609375 -53.28125 C 55.609375 -56.550781 54.789062 -59.023438 53.15625 -60.703125 C 51.519531 -62.378906 49.3125 -63.21875 46.53125 -63.21875 C 43.75 -63.21875 41.535156 -62.378906 39.890625 -60.703125 C 38.253906 -59.023438 37.4375 -56.550781 37.4375 -53.28125 L 37.4375 -32.65625 C 37.4375 -29.300781 38.253906 -26.804688 39.890625 -25.171875 Z M 39.890625 -25.171875 "/></g></g></g><g fill="#e5cc4d" fill-opacity="1"><g transform="translate(668.783518, 514.58332)"><g><path d="M 34.859375 -85.9375 L 61.5 -85.9375 C 64.445312 -85.9375 66.289062 -84.585938 67.03125 -81.890625 L 94.40625 -3.5625 C 94.488281 -3.3125 94.53125 -2.921875 94.53125 -2.390625 C 94.53125 -1.859375 94.265625 -1.328125 93.734375 -0.796875 C 93.203125 -0.265625 92.566406 0 91.828125 0 L 69.109375 0 C 66.660156 0 65.066406 -1.019531 64.328125 -3.0625 L 61.375 -11.171875 L 34.984375 -11.171875 L 32.046875 -3.0625 C 31.304688 -1.019531 29.707031 0 27.25 0 L 4.546875 0 C 3.804688 0 3.171875 -0.265625 2.640625 -0.796875 C 2.109375 -1.328125 1.84375 -1.859375 1.84375 -2.390625 C 1.84375 -2.921875 1.882812 -3.3125 1.96875 -3.5625 L 29.34375 -81.890625 C 30.082031 -84.585938 31.921875 -85.9375 34.859375 -85.9375 Z M 41.25 -35.109375 L 55.125 -35.109375 L 48.125 -57.953125 Z M 41.25 -35.109375 "/></g></g></g><g fill="#e5cc4d" fill-opacity="1"><g transform="translate(765.145111, 514.58332)"><g><path d="M 87.046875 -4.046875 C 87.285156 -3.554688 87.40625 -3.023438 87.40625 -2.453125 C 87.40625 -1.878906 87.140625 -1.328125 86.609375 -0.796875 C 86.078125 -0.265625 85.441406 0 84.703125 0 L 59.546875 0 C 57.003906 0 55.242188 -1.101562 54.265625 -3.3125 L 43.703125 -26.765625 L 38.671875 -26.765625 L 38.671875 -3.3125 C 38.671875 -2.414062 38.34375 -1.640625 37.6875 -0.984375 C 37.03125 -0.328125 36.253906 0 35.359375 0 L 11.296875 0 C 10.390625 0 9.609375 -0.328125 8.953125 -0.984375 C 8.304688 -1.640625 7.984375 -2.414062 7.984375 -3.3125 L 7.984375 -82.625 C 7.984375 -83.519531 8.304688 -84.296875 8.953125 -84.953125 C 9.609375 -85.609375 10.390625 -85.9375 11.296875 -85.9375 L 47.640625 -85.9375 C 59.421875 -85.9375 68.625 -83.296875 75.25 -78.015625 C 81.882812 -72.734375 85.203125 -65.160156 85.203125 -55.296875 C 85.203125 -45.441406 80.78125 -37.691406 71.9375 -32.046875 Z M 38.671875 -63.09375 L 38.671875 -50.09375 L 47.640625 -50.09375 C 49.429688 -50.09375 50.816406 -50.6875 51.796875 -51.875 C 52.785156 -53.0625 53.28125 -54.550781 53.28125 -56.34375 C 53.28125 -58.144531 52.804688 -59.71875 51.859375 -61.0625 C 50.921875 -62.414062 49.515625 -63.09375 47.640625 -63.09375 Z M 38.671875 -63.09375 "/></g></g></g><g fill="#e5cc4d" fill-opacity="1"><g transform="translate(856.228271, 514.58332)"><g><path d="M 11.296875 -85.9375 L 46.65625 -85.9375 C 58.601562 -85.9375 68.441406 -82.96875 76.171875 -77.03125 C 83.910156 -71.101562 87.78125 -62.816406 87.78125 -52.171875 L 87.78125 -33.890625 C 87.78125 -22.753906 84.015625 -14.320312 76.484375 -8.59375 C 68.953125 -2.863281 59.050781 0 46.78125 0 L 11.296875 0 C 10.390625 0 9.609375 -0.328125 8.953125 -0.984375 C 8.304688 -1.640625 7.984375 -2.414062 7.984375 -3.3125 L 7.984375 -82.625 C 7.984375 -83.519531 8.304688 -84.296875 8.953125 -84.953125 C 9.609375 -85.609375 10.390625 -85.9375 11.296875 -85.9375 Z M 38.671875 -62 L 38.671875 -23.9375 L 46.65625 -23.9375 C 49.4375 -23.9375 51.664062 -24.773438 53.34375 -26.453125 C 55.019531 -28.128906 55.859375 -30.609375 55.859375 -33.890625 L 55.859375 -52.171875 C 55.859375 -58.722656 52.789062 -62 46.65625 -62 Z M 38.671875 -62 "/></g></g></g><g fill="#e5cc4d" fill-opacity="1"><g transform="translate(226.184685, 642.0534)"><g><path d="M 76.84375 -85.9375 L 96.25 -85.9375 C 97.144531 -85.9375 97.921875 -85.609375 98.578125 -84.953125 C 99.234375 -84.296875 99.5625 -83.519531 99.5625 -82.625 L 99.5625 -3.3125 C 99.5625 -2.414062 99.234375 -1.640625 98.578125 -0.984375 C 97.921875 -0.328125 97.144531 0 96.25 0 L 74.03125 0 C 73.125 0 72.34375 -0.328125 71.6875 -0.984375 C 71.039062 -1.640625 70.71875 -2.414062 70.71875 -3.3125 L 70.71875 -36.953125 L 62.609375 -23.6875 C 61.296875 -21.644531 59.78125 -20.625 58.0625 -20.625 L 49.46875 -20.625 C 47.75 -20.625 46.238281 -21.644531 44.9375 -23.6875 L 36.828125 -36.953125 L 36.828125 -3.3125 C 36.828125 -2.414062 36.5 -1.640625 35.84375 -0.984375 C 35.1875 -0.328125 34.410156 0 33.515625 0 L 11.296875 0 C 10.390625 0 9.609375 -0.328125 8.953125 -0.984375 C 8.304688 -1.640625 7.984375 -2.414062 7.984375 -3.3125 L 7.984375 -82.625 C 7.984375 -83.519531 8.304688 -84.296875 8.953125 -84.953125 C 9.609375 -85.609375 10.390625 -85.9375 11.296875 -85.9375 L 30.6875 -85.9375 C 32.976562 -85.9375 34.738281 -84.832031 35.96875 -82.625 L 53.765625 -53.15625 L 71.578125 -82.625 C 72.796875 -84.832031 74.550781 -85.9375 76.84375 -85.9375 Z M 76.84375 -85.9375 "/></g></g></g><g fill="#e5cc4d" fill-opacity="1"><g transform="translate(333.716839, 642.0534)"><g><path d="M 37.4375 -23.9375 L 75.25 -23.9375 C 76.15625 -23.9375 76.929688 -23.609375 77.578125 -22.953125 C 78.234375 -22.296875 78.5625 -21.519531 78.5625 -20.625 L 78.5625 -3.3125 C 78.5625 -2.414062 78.234375 -1.640625 77.578125 -0.984375 C 76.929688 -0.328125 76.15625 0 75.25 0 L 11.296875 0 C 10.390625 0 9.609375 -0.328125 8.953125 -0.984375 C 8.304688 -1.640625 7.984375 -2.414062 7.984375 -3.3125 L 7.984375 -82.625 C 7.984375 -83.519531 8.304688 -84.296875 8.953125 -84.953125 C 9.609375 -85.609375 10.390625 -85.9375 11.296875 -85.9375 L 74.265625 -85.9375 C 75.171875 -85.9375 75.953125 -85.609375 76.609375 -84.953125 C 77.265625 -84.296875 77.59375 -83.519531 77.59375 -82.625 L 77.59375 -65.3125 C 77.59375 -64.40625 77.265625 -63.625 76.609375 -62.96875 C 75.953125 -62.320312 75.171875 -62 74.265625 -62 L 37.4375 -62 L 37.4375 -54.265625 L 71.578125 -54.265625 C 72.472656 -54.265625 73.25 -53.9375 73.90625 -53.28125 C 74.5625 -52.625 74.890625 -51.847656 74.890625 -50.953125 L 74.890625 -34.984375 C 74.890625 -34.085938 74.5625 -33.3125 73.90625 -32.65625 C 73.25 -32 72.472656 -31.671875 71.578125 -31.671875 L 37.4375 -31.671875 Z M 37.4375 -23.9375 "/></g></g></g><g fill="#e5cc4d" fill-opacity="1"><g transform="translate(419.030594, 642.0534)"><g><path d="M 76.84375 -85.9375 L 96.25 -85.9375 C 97.144531 -85.9375 97.921875 -85.609375 98.578125 -84.953125 C 99.234375 -84.296875 99.5625 -83.519531 99.5625 -82.625 L 99.5625 -3.3125 C 99.5625 -2.414062 99.234375 -1.640625 98.578125 -0.984375 C 97.921875 -0.328125 97.144531 0 96.25 0 L 74.03125 0 C 73.125 0 72.34375 -0.328125 71.6875 -0.984375 C 71.039062 -1.640625 70.71875 -2.414062 70.71875 -3.3125 L 70.71875 -36.953125 L 62.609375 -23.6875 C 61.296875 -21.644531 59.78125 -20.625 58.0625 -20.625 L 49.46875 -20.625 C 47.75 -20.625 46.238281 -21.644531 44.9375 -23.6875 L 36.828125 -36.953125 L 36.828125 -3.3125 C 36.828125 -2.414062 36.5 -1.640625 35.84375 -0.984375 C 35.1875 -0.328125 34.410156 0 33.515625 0 L 11.296875 0 C 10.390625 0 9.609375 -0.328125 8.953125 -0.984375 C 8.304688 -1.640625 7.984375 -2.414062 7.984375 -3.3125 L 7.984375 -82.625 C 7.984375 -83.519531 8.304688 -84.296875 8.953125 -84.953125 C 9.609375 -85.609375 10.390625 -85.9375 11.296875 -85.9375 L 30.6875 -85.9375 C 32.976562 -85.9375 34.738281 -84.832031 35.96875 -82.625 L 53.765625 -53.15625 L 71.578125 -82.625 C 72.796875 -84.832031 74.550781 -85.9375 76.84375 -85.9375 Z M 76.84375 -85.9375 "/></g></g></g><g fill="#e5cc4d" fill-opacity="1"><g transform="translate(526.562764, 642.0534)"><g><path d="M 52.71875 -55.25 C 53.582031 -56.3125 54.015625 -57.578125 54.015625 -59.046875 C 54.015625 -60.523438 53.582031 -61.851562 52.71875 -63.03125 C 51.863281 -64.21875 50.617188 -64.8125 48.984375 -64.8125 L 38.671875 -64.8125 L 38.671875 -53.65625 L 48.984375 -53.65625 C 50.617188 -53.65625 51.863281 -54.1875 52.71875 -55.25 Z M 38.671875 -33.140625 L 38.671875 -21.109375 L 50.09375 -21.109375 C 51.96875 -21.109375 53.375 -21.742188 54.3125 -23.015625 C 55.257812 -24.285156 55.734375 -25.695312 55.734375 -27.25 L 55.734375 -27.375 C 55.734375 -28.925781 55.222656 -30.273438 54.203125 -31.421875 C 53.179688 -32.566406 51.8125 -33.140625 50.09375 -33.140625 Z M 53.28125 0 L 11.296875 0 C 10.390625 0 9.609375 -0.328125 8.953125 -0.984375 C 8.304688 -1.640625 7.984375 -2.414062 7.984375 -3.3125 L 7.984375 -82.625 C 7.984375 -83.519531 8.304688 -84.296875 8.953125 -84.953125 C 9.609375 -85.609375 10.390625 -85.9375 11.296875 -85.9375 L 52.046875 -85.9375 C 63.671875 -85.9375 72.242188 -83.828125 77.765625 -79.609375 C 83.296875 -75.398438 86.0625 -69.035156 86.0625 -60.515625 L 86.0625 -60.15625 C 86.0625 -56.632812 85.035156 -53.503906 82.984375 -50.765625 C 80.941406 -48.023438 78.691406 -46.039062 76.234375 -44.8125 C 79.503906 -43.5 82.265625 -41.1875 84.515625 -37.875 C 86.773438 -34.5625 87.90625 -30.941406 87.90625 -27.015625 C 87.90625 -9.003906 76.363281 0 53.28125 0 Z M 53.28125 0 "/></g></g></g><g fill="#e5cc4d" fill-opacity="1"><g transform="translate(619.364468, 642.0534)"><g><path d="M 37.4375 -23.9375 L 75.25 -23.9375 C 76.15625 -23.9375 76.929688 -23.609375 77.578125 -22.953125 C 78.234375 -22.296875 78.5625 -21.519531 78.5625 -20.625 L 78.5625 -3.3125 C 78.5625 -2.414062 78.234375 -1.640625 77.578125 -0.984375 C 76.929688 -0.328125 76.15625 0 75.25 0 L 11.296875 0 C 10.390625 0 9.609375 -0.328125 8.953125 -0.984375 C 8.304688 -1.640625 7.984375 -2.414062 7.984375 -3.3125 L 7.984375 -82.625 C 7.984375 -83.519531 8.304688 -84.296875 8.953125 -84.953125 C 9.609375 -85.609375 10.390625 -85.9375 11.296875 -85.9375 L 74.265625 -85.9375 C 75.171875 -85.9375 75.953125 -85.609375 76.609375 -84.953125 C 77.265625 -84.296875 77.59375 -83.519531 77.59375 -82.625 L 77.59375 -65.3125 C 77.59375 -64.40625 77.265625 -63.625 76.609375 -62.96875 C 75.953125 -62.320312 75.171875 -62 74.265625 -62 L 37.4375 -62 L 37.4375 -54.265625 L 71.578125 -54.265625 C 72.472656 -54.265625 73.25 -53.9375 73.90625 -53.28125 C 74.5625 -52.625 74.890625 -51.847656 74.890625 -50.953125 L 74.890625 -34.984375 C 74.890625 -34.085938 74.5625 -33.3125 73.90625 -32.65625 C 73.25 -32 72.472656 -31.671875 71.578125 -31.671875 L 37.4375 -31.671875 Z M 37.4375 -23.9375 "/></g></g></g><g fill="#e5cc4d" fill-opacity="1"><g transform="translate(704.678238, 642.0534)"><g><path d="M 87.046875 -4.046875 C 87.285156 -3.554688 87.40625 -3.023438 87.40625 -2.453125 C 87.40625 -1.878906 87.140625 -1.328125 86.609375 -0.796875 C 86.078125 -0.265625 85.441406 0 84.703125 0 L 59.546875 0 C 57.003906 0 55.242188 -1.101562 54.265625 -3.3125 L 43.703125 -26.765625 L 38.671875 -26.765625 L 38.671875 -3.3125 C 38.671875 -2.414062 38.34375 -1.640625 37.6875 -0.984375 C 37.03125 -0.328125 36.253906 0 35.359375 0 L 11.296875 0 C 10.390625 0 9.609375 -0.328125 8.953125 -0.984375 C 8.304688 -1.640625 7.984375 -2.414062 7.984375 -3.3125 L 7.984375 -82.625 C 7.984375 -83.519531 8.304688 -84.296875 8.953125 -84.953125 C 9.609375 -85.609375 10.390625 -85.9375 11.296875 -85.9375 L 47.640625 -85.9375 C 59.421875 -85.9375 68.625 -83.296875 75.25 -78.015625 C 81.882812 -72.734375 85.203125 -65.160156 85.203125 -55.296875 C 85.203125 -45.441406 80.78125 -37.691406 71.9375 -32.046875 Z M 38.671875 -63.09375 L 38.671875 -50.09375 L 47.640625 -50.09375 C 49.429688 -50.09375 50.816406 -50.6875 51.796875 -51.875 C 52.785156 -53.0625 53.28125 -54.550781 53.28125 -56.34375 C 53.28125 -58.144531 52.804688 -59.71875 51.859375 -61.0625 C 50.921875 -62.414062 49.515625 -63.09375 47.640625 -63.09375 Z M 38.671875 -63.09375 "/></g></g></g><g fill="#e5cc4d" fill-opacity="1"><g transform="translate(795.761399, 642.0534)"><g><path d="M 5.765625 -58.921875 C 5.765625 -67.273438 9.222656 -74.066406 16.140625 -79.296875 C 23.054688 -84.535156 32.140625 -87.15625 43.390625 -87.15625 C 54.648438 -87.15625 63.859375 -84.414062 71.015625 -78.9375 C 78.179688 -73.457031 81.765625 -67.726562 81.765625 -61.75 C 81.765625 -61.007812 81.5 -60.375 80.96875 -59.84375 C 80.4375 -59.3125 79.84375 -59.046875 79.1875 -59.046875 L 54.625 -59.046875 C 52.75 -59.046875 51.03125 -59.738281 49.46875 -61.125 C 47.914062 -62.519531 45.832031 -63.21875 43.21875 -63.21875 C 39.289062 -63.21875 37.328125 -62.070312 37.328125 -59.78125 C 37.328125 -58.5625 38.285156 -57.539062 40.203125 -56.71875 C 42.128906 -55.894531 45.710938 -55.160156 50.953125 -54.515625 C 63.140625 -52.953125 71.832031 -50.101562 77.03125 -45.96875 C 82.226562 -41.84375 84.828125 -35.582031 84.828125 -27.1875 C 84.828125 -18.800781 81 -11.96875 73.34375 -6.6875 C 65.695312 -1.40625 55.691406 1.234375 43.328125 1.234375 C 30.972656 1.234375 21.273438 -1.300781 14.234375 -6.375 C 7.203125 -11.457031 3.6875 -17.640625 3.6875 -24.921875 C 3.6875 -25.660156 3.953125 -26.296875 4.484375 -26.828125 C 5.015625 -27.359375 5.648438 -27.625 6.390625 -27.625 L 29.703125 -27.625 C 31.421875 -27.625 33.320312 -26.804688 35.40625 -25.171875 C 37.5 -23.535156 40.390625 -22.71875 44.078125 -22.71875 C 50.210938 -22.71875 53.28125 -23.863281 53.28125 -26.15625 C 53.28125 -27.625 52.175781 -28.742188 49.96875 -29.515625 C 47.757812 -30.296875 43.582031 -31.097656 37.4375 -31.921875 C 16.320312 -34.703125 5.765625 -43.703125 5.765625 -58.921875 Z M 5.765625 -58.921875 "/></g></g></g><g fill="#97d6cf" fill-opacity="1"><g transform="translate(164.254466, 306.603665)"><g><path d="M 240.84375 -168.953125 C 239.945312 -168.953125 239.5 -169.5625 239.5 -170.78125 C 239.5 -172 239.84375 -172.789062 240.53125 -173.15625 C 241.226562 -173.519531 242.410156 -174.128906 244.078125 -174.984375 C 245.742188 -175.835938 246.898438 -176.40625 247.546875 -176.6875 C 248.203125 -176.976562 249.222656 -177.445312 250.609375 -178.09375 C 251.992188 -178.75 253.113281 -179.195312 253.96875 -179.4375 C 254.820312 -179.6875 255.859375 -180.015625 257.078125 -180.421875 C 259.109375 -180.992188 261.648438 -181.28125 264.703125 -181.28125 C 267.753906 -181.28125 270.890625 -180.21875 274.109375 -178.09375 C 277.328125 -175.976562 278.9375 -173.210938 278.9375 -169.796875 C 278.9375 -162.722656 275.84375 -153.34375 269.65625 -141.65625 C 263.46875 -129.976562 255.53125 -117.832031 245.84375 -105.21875 C 236.164062 -92.601562 225.300781 -79.785156 213.25 -66.765625 C 201.207031 -53.742188 189.445312 -42.109375 177.96875 -31.859375 C 166.5 -21.609375 155.695312 -13.226562 145.5625 -6.71875 C 135.4375 -0.207031 127.644531 3.046875 122.1875 3.046875 C 110.632812 3.046875 104.859375 -2.203125 104.859375 -12.703125 C 104.859375 -27.429688 113.203125 -48.707031 129.890625 -76.53125 C 97.410156 -38.125 70.226562 -13.347656 48.34375 -2.203125 C 42.644531 0.734375 38.289062 2.203125 35.28125 2.203125 C 32.269531 2.203125 28.585938 0.351562 24.234375 -3.34375 C 19.878906 -7.050781 17.703125 -10.695312 17.703125 -14.28125 C 17.703125 -34.539062 31.78125 -62.898438 59.9375 -99.359375 C 70.675781 -113.273438 84.0625 -128.820312 100.09375 -146 C 86.101562 -133.875 75.441406 -127.8125 68.109375 -127.8125 C 64.203125 -127.8125 61.316406 -129.722656 59.453125 -133.546875 C 57.742188 -136.316406 56.890625 -138.941406 56.890625 -141.421875 C 56.890625 -143.898438 58.515625 -146.601562 61.765625 -149.53125 C 65.023438 -152.46875 66.9375 -153.9375 67.5 -153.9375 C 68.070312 -153.9375 68.601562 -153.726562 69.09375 -153.3125 C 69.582031 -152.90625 69.828125 -152.539062 69.828125 -152.21875 C 68.679688 -151 68.109375 -150.207031 68.109375 -149.84375 C 68.109375 -149.476562 68.597656 -149.296875 69.578125 -149.296875 C 70.554688 -149.296875 78.691406 -153.953125 93.984375 -163.265625 C 109.285156 -172.585938 117.671875 -177.25 119.140625 -177.25 C 123.367188 -177.25 127.4375 -176.085938 131.34375 -173.765625 C 135.25 -171.441406 137.203125 -169.488281 137.203125 -167.90625 C 137.203125 -166.320312 136.390625 -164.226562 134.765625 -161.625 C 133.140625 -159.019531 123.457031 -146.257812 105.71875 -123.34375 C 87.976562 -100.4375 75.078125 -83.101562 67.015625 -71.34375 C 58.960938 -59.59375 53.0625 -49.953125 49.3125 -42.421875 C 45.570312 -34.890625 43.703125 -30.3125 43.703125 -28.6875 C 43.703125 -27.0625 43.945312 -26.25 44.4375 -26.25 C 47.851562 -26.25 60.078125 -36.5625 81.109375 -57.1875 C 102.148438 -77.820312 122.191406 -98.207031 141.234375 -118.34375 C 160.273438 -138.488281 170.628906 -149.660156 172.296875 -151.859375 C 173.972656 -154.054688 175.785156 -155.617188 177.734375 -156.546875 C 179.691406 -157.484375 182.625 -157.953125 186.53125 -157.953125 C 197.425781 -157.953125 202.875 -155.878906 202.875 -151.734375 C 202.875 -150.023438 200.492188 -146.398438 195.734375 -140.859375 C 190.972656 -135.328125 187.617188 -131.300781 185.671875 -128.78125 C 175.492188 -115.84375 164.160156 -97.613281 151.671875 -74.09375 C 139.179688 -50.570312 132.9375 -35.519531 132.9375 -28.9375 C 132.9375 -27.144531 133.523438 -26.25 134.703125 -26.25 C 135.878906 -26.25 139.378906 -28.546875 145.203125 -33.140625 C 151.023438 -37.742188 158.695312 -44.617188 168.21875 -53.765625 C 177.738281 -62.921875 188.5625 -74.253906 200.6875 -87.765625 C 212.8125 -101.273438 224.382812 -116.269531 235.40625 -132.75 C 246.4375 -149.226562 251.953125 -159.582031 251.953125 -163.8125 C 251.953125 -168.050781 250.328125 -170.171875 247.078125 -170.171875 Z M 240.84375 -168.953125 "/></g></g><g transform="translate(388.251266, 306.603665)"><g><path d="M 91.546875 -91.3125 C 91.546875 -85.9375 89.367188 -81.210938 85.015625 -77.140625 C 80.660156 -73.078125 75.71875 -71.046875 70.1875 -71.046875 C 68.394531 -71.046875 67.210938 -71.472656 66.640625 -72.328125 C 66.078125 -73.179688 65.796875 -74.300781 65.796875 -75.6875 C 65.796875 -77.070312 65.957031 -78.414062 66.28125 -79.71875 C 63.351562 -78.738281 60.097656 -77.226562 56.515625 -75.1875 C 52.929688 -73.15625 48.535156 -70.144531 43.328125 -66.15625 C 38.117188 -62.175781 35.515625 -59.207031 35.515625 -57.25 C 35.515625 -56.601562 36.472656 -56.28125 38.390625 -56.28125 C 40.304688 -56.28125 43.253906 -56.945312 47.234375 -58.28125 C 51.222656 -59.625 54.007812 -60.296875 55.59375 -60.296875 C 57.1875 -60.296875 58.226562 -60.21875 58.71875 -60.0625 C 59.769531 -59.488281 60.90625 -58.242188 62.125 -56.328125 C 63.351562 -54.421875 63.96875 -52.914062 63.96875 -51.8125 C 63.96875 -50.71875 62.910156 -49.273438 60.796875 -47.484375 C 58.679688 -45.691406 56.28125 -44.328125 53.59375 -43.390625 C 50.90625 -42.460938 49.113281 -41.753906 48.21875 -41.265625 C 31.050781 -31.660156 22.46875 -25.066406 22.46875 -21.484375 C 22.46875 -15.140625 27.878906 -11.96875 38.703125 -11.96875 C 45.617188 -11.96875 52.578125 -14.164062 59.578125 -18.5625 C 65.515625 -22.300781 70.863281 -26.101562 75.625 -29.96875 C 80.382812 -33.832031 83.394531 -36.210938 84.65625 -37.109375 C 85.914062 -38.003906 86.875 -38.453125 87.53125 -38.453125 C 89.644531 -38.453125 90.703125 -36.09375 90.703125 -31.375 C 90.703125 -26.65625 90.414062 -23.539062 89.84375 -22.03125 C 89.269531 -20.53125 87.644531 -18.679688 84.96875 -16.484375 C 67.550781 -2.316406 51.066406 4.765625 35.515625 4.765625 C 27.222656 4.765625 20.59375 3.625 15.625 1.34375 C 6.507812 -2.8125 1.953125 -9.160156 1.953125 -17.703125 C 1.953125 -28.929688 9.722656 -37.4375 25.265625 -43.21875 C 22.171875 -44.59375 20.175781 -46.359375 19.28125 -48.515625 C 18.382812 -50.679688 17.9375 -54.144531 17.9375 -58.90625 C 17.9375 -63.664062 20.15625 -68.707031 24.59375 -74.03125 C 29.03125 -79.363281 34.460938 -83.738281 40.890625 -87.15625 C 55.210938 -94.882812 67.988281 -98.75 79.21875 -98.75 C 81.90625 -98.75 84.628906 -98.097656 87.390625 -96.796875 C 90.160156 -95.492188 91.546875 -93.664062 91.546875 -91.3125 Z M 91.546875 -91.3125 "/></g></g><g transform="translate(467.596182, 306.603665)"><g><path d="M 108.765625 -183.234375 C 112.671875 -183.234375 116.109375 -182.070312 119.078125 -179.75 C 122.046875 -177.425781 123.53125 -173.984375 123.53125 -169.421875 C 123.53125 -164.867188 121.007812 -157.726562 115.96875 -148 C 110.925781 -138.28125 104.863281 -128.351562 97.78125 -118.21875 C 90.695312 -108.09375 82.679688 -97.332031 73.734375 -85.9375 C 59.566406 -67.875 45.972656 -51.640625 32.953125 -37.234375 C 32.878906 -36.253906 32.535156 -34.441406 31.921875 -31.796875 C 31.304688 -29.148438 31 -26.484375 31 -23.796875 C 31 -21.117188 32.238281 -18.703125 34.71875 -16.546875 C 37.207031 -14.390625 40.28125 -13.3125 43.9375 -13.3125 C 47.601562 -13.3125 51.53125 -14.613281 55.71875 -17.21875 C 59.914062 -19.820312 63.5625 -22.707031 66.65625 -25.875 C 74.789062 -34.257812 79.832031 -38.453125 81.78125 -38.453125 C 83.738281 -38.453125 84.71875 -35.484375 84.71875 -29.546875 L 84.71875 -27.09375 C 84.71875 -23.925781 84.148438 -21.609375 83.015625 -20.140625 C 76.171875 -11.753906 68.476562 -5.503906 59.9375 -1.390625 C 51.394531 2.710938 43.296875 4.765625 35.640625 4.765625 C 27.992188 4.765625 22.175781 2.425781 18.1875 -2.25 C 14.195312 -6.9375 12.203125 -13.347656 12.203125 -21.484375 C 12.203125 -37.347656 16.453125 -56.003906 24.953125 -77.453125 C 33.460938 -98.898438 43.050781 -117.148438 53.71875 -132.203125 C 77.71875 -166.222656 96.066406 -183.234375 108.765625 -183.234375 Z M 103.265625 -162.96875 C 103.265625 -164.1875 102.859375 -164.796875 102.046875 -164.796875 C 99.203125 -164.796875 91.71875 -156.65625 79.59375 -140.375 C 67.46875 -124.101562 58.695312 -111.125 53.28125 -101.4375 C 47.875 -91.757812 42.769531 -79.59375 37.96875 -64.9375 C 47.570312 -76.332031 60.851562 -94.09375 77.8125 -118.21875 C 94.78125 -142.351562 103.265625 -157.269531 103.265625 -162.96875 Z M 103.265625 -162.96875 "/></g></g><g transform="translate(532.048667, 306.603665)"><g><path d="M 86.96875 -27.09375 C 91.164062 -29.78125 93.875 -31.632812 95.09375 -32.65625 C 96.3125 -33.675781 97.734375 -34.875 99.359375 -36.25 C 100.992188 -37.632812 102.335938 -38.328125 103.390625 -38.328125 C 105.015625 -38.328125 105.828125 -36.472656 105.828125 -32.765625 C 105.828125 -29.066406 104.015625 -25.082031 100.390625 -20.8125 C 96.773438 -16.539062 92.28125 -12.921875 86.90625 -9.953125 C 81.539062 -6.984375 75.804688 -4.398438 69.703125 -2.203125 C 57.578125 2.273438 47.257812 4.515625 38.75 4.515625 C 30.25 4.515625 22.582031 1.726562 15.75 -3.84375 C 8.914062 -9.414062 5.5 -16.695312 5.5 -25.6875 C 5.5 -34.6875 7.734375 -43.679688 12.203125 -52.671875 C 16.679688 -61.660156 22.441406 -69.550781 29.484375 -76.34375 C 36.523438 -83.144531 44.703125 -88.660156 54.015625 -92.890625 C 63.335938 -97.128906 72.554688 -99.25 81.671875 -99.25 C 86.054688 -99.25 90 -97.984375 93.5 -95.453125 C 97 -92.929688 98.75 -89.472656 98.75 -85.078125 C 98.75 -80.679688 96.570312 -75.410156 92.21875 -69.265625 C 87.863281 -63.128906 83.453125 -60.0625 78.984375 -60.0625 C 73.773438 -60.0625 71.171875 -62.539062 71.171875 -67.5 C 71.171875 -68.800781 72.390625 -71.117188 74.828125 -74.453125 C 77.265625 -77.796875 78.484375 -80.054688 78.484375 -81.234375 C 78.484375 -82.421875 78.039062 -83.015625 77.15625 -83.015625 C 72.675781 -83.015625 67.867188 -81.46875 62.734375 -78.375 C 57.609375 -75.28125 52.953125 -72.023438 48.765625 -68.609375 C 44.578125 -65.191406 40.609375 -61.363281 36.859375 -57.125 C 28.722656 -47.925781 24.65625 -38.363281 24.65625 -28.4375 C 24.65625 -24.457031 25.9375 -21.019531 28.5 -18.125 C 31.0625 -15.238281 35.375 -13.796875 41.4375 -13.796875 C 47.5 -13.796875 53.582031 -14.503906 59.6875 -15.921875 C 65.789062 -17.347656 70.816406 -18.894531 74.765625 -20.5625 C 78.710938 -22.238281 82.78125 -24.414062 86.96875 -27.09375 Z M 86.96875 -27.09375 "/></g></g><g transform="translate(623.234285, 306.603665)"><g><path d="M 90.453125 -93.015625 C 92.890625 -93.015625 95.390625 -91.914062 97.953125 -89.71875 C 100.523438 -87.519531 101.8125 -84.160156 101.8125 -79.640625 C 101.8125 -75.128906 100.222656 -69.269531 97.046875 -62.0625 C 93.867188 -54.863281 89.515625 -47.539062 83.984375 -40.09375 C 78.453125 -32.65625 72.367188 -25.660156 65.734375 -19.109375 C 59.097656 -12.554688 51.9375 -7.179688 44.25 -2.984375 C 36.5625 1.203125 29.582031 3.296875 23.3125 3.296875 C 17.050781 3.296875 12.023438 1.320312 8.234375 -2.625 C 4.453125 -6.570312 2.5625 -12.0625 2.5625 -19.09375 C 2.5625 -26.132812 4.289062 -33.925781 7.75 -42.46875 C 11.207031 -51.019531 15.660156 -58.570312 21.109375 -65.125 C 26.566406 -71.675781 32.46875 -77.554688 38.8125 -82.765625 C 52.082031 -93.421875 63.722656 -98.75 73.734375 -98.75 C 78.203125 -98.75 81.578125 -97.648438 83.859375 -95.453125 C 84.671875 -94.722656 85.078125 -94.070312 85.078125 -93.5 L 85.078125 -92.78125 C 86.222656 -92.9375 88.015625 -93.015625 90.453125 -93.015625 Z M 78.125 -76.78125 L 77.265625 -76.78125 C 74.421875 -76.78125 73 -78.859375 73 -83.015625 C 67.0625 -81.054688 60.835938 -77.632812 54.328125 -72.75 C 47.816406 -67.875 41.992188 -62.097656 36.859375 -55.421875 C 26.441406 -42.078125 21.15625 -30.804688 21 -21.609375 C 21 -17.046875 22.664062 -14.765625 26 -14.765625 C 29.332031 -14.765625 34.296875 -16.960938 40.890625 -21.359375 C 47.484375 -25.753906 54.015625 -32.019531 60.484375 -40.15625 C 66.953125 -48.300781 71.789062 -55.363281 75 -61.34375 C 78.21875 -67.320312 79.828125 -71.390625 79.828125 -73.546875 C 79.828125 -75.703125 79.257812 -76.78125 78.125 -76.78125 Z M 78.125 -76.78125 "/></g></g><g transform="translate(714.786112, 306.603665)"><g><path d="M 7.5625 0.734375 L 1.59375 0.484375 L -0.609375 0.484375 C -1.421875 0.242188 -2.296875 -0.238281 -3.234375 -0.96875 C -4.171875 -1.707031 -4.882812 -2.238281 -5.375 -2.5625 C -5.863281 -2.882812 -6.109375 -3.472656 -6.109375 -4.328125 C -6.109375 -5.179688 -5.78125 -6.671875 -5.125 -8.796875 C 10.738281 -43.703125 26.078125 -71.613281 40.890625 -92.53125 C 42.515625 -94.8125 45.140625 -96.539062 48.765625 -97.71875 C 52.390625 -98.894531 55.910156 -99.484375 59.328125 -99.484375 C 61.359375 -99.484375 62.375 -97.898438 62.375 -94.734375 C 62.375 -93.835938 62.046875 -92.632812 61.390625 -91.125 C 60.742188 -89.625 59.117188 -87.160156 56.515625 -83.734375 C 53.910156 -80.316406 50.816406 -76.410156 47.234375 -72.015625 C 43.660156 -67.628906 41.628906 -65.109375 41.140625 -64.453125 C 52.285156 -76.003906 62.351562 -84.609375 71.34375 -90.265625 C 80.34375 -95.921875 86.851562 -98.75 90.875 -98.75 C 94.90625 -98.75 98 -97.585938 100.15625 -95.265625 C 102.3125 -92.953125 103.390625 -90.472656 103.390625 -87.828125 C 103.390625 -85.179688 103.207031 -82.984375 102.84375 -81.234375 C 102.476562 -79.484375 101.804688 -77.648438 100.828125 -75.734375 C 99.847656 -73.828125 99.015625 -72.203125 98.328125 -70.859375 C 97.640625 -69.515625 96.476562 -67.765625 94.84375 -65.609375 C 93.21875 -63.453125 92.097656 -61.96875 91.484375 -61.15625 C 90.878906 -60.34375 89.617188 -58.796875 87.703125 -56.515625 C 85.796875 -54.234375 84.757812 -52.972656 84.59375 -52.734375 C 86.875 -55.015625 90.046875 -58.390625 94.109375 -62.859375 C 98.179688 -67.335938 101.617188 -71.082031 104.421875 -74.09375 C 107.234375 -77.101562 110.753906 -80.5 114.984375 -84.28125 C 119.222656 -88.070312 123.171875 -91.144531 126.828125 -93.5 C 135.617188 -99.039062 144.53125 -101.8125 153.5625 -101.8125 C 156.65625 -101.8125 159.257812 -100.832031 161.375 -98.875 C 163.488281 -96.925781 164.546875 -94.585938 164.546875 -91.859375 C 164.546875 -89.128906 161.25 -82.617188 154.65625 -72.328125 C 148.070312 -62.035156 141.503906 -51.695312 134.953125 -41.3125 C 128.398438 -30.9375 125.125 -24.410156 125.125 -21.734375 C 125.125 -17.984375 125.8125 -15.757812 127.1875 -15.0625 C 128.570312 -14.375 130.238281 -14.113281 132.1875 -14.28125 C 134.144531 -14.445312 136.894531 -15.707031 140.4375 -18.0625 C 143.976562 -20.425781 147.132812 -22.867188 149.90625 -25.390625 C 154.375 -29.460938 158.523438 -33.410156 162.359375 -37.234375 C 163.171875 -37.960938 164.066406 -38.328125 165.046875 -38.328125 C 166.585938 -38.328125 167.519531 -37.144531 167.84375 -34.78125 C 168.164062 -32.425781 168.328125 -29.988281 168.328125 -27.46875 C 168.328125 -24.945312 168.085938 -23.195312 167.609375 -22.21875 C 165.242188 -17.65625 160.03125 -12.078125 151.96875 -5.484375 C 143.914062 1.097656 136.1875 4.390625 128.78125 4.390625 C 127.882812 4.390625 127.234375 4.347656 126.828125 4.265625 C 118.453125 3.453125 112.65625 1.15625 109.4375 -2.625 C 106.21875 -6.40625 104.609375 -10.898438 104.609375 -16.109375 C 104.609375 -21.316406 106.378906 -27.625 109.921875 -35.03125 C 113.460938 -42.4375 117.347656 -49.148438 121.578125 -55.171875 C 125.816406 -61.191406 129.703125 -66.625 133.234375 -71.46875 C 136.773438 -76.3125 138.546875 -78.9375 138.546875 -79.34375 C 138.546875 -79.75 138.222656 -79.953125 137.578125 -79.953125 C 135.054688 -79.953125 129.441406 -75.882812 120.734375 -67.75 C 105.835938 -53.832031 92.976562 -40.40625 82.15625 -27.46875 C 79.300781 -24.050781 72.546875 -15.382812 61.890625 -1.46875 C 60.671875 0.164062 58.738281 0.984375 56.09375 0.984375 C 53.445312 0.984375 50.695312 0.472656 47.84375 -0.546875 C 45 -1.566406 43.578125 -2.890625 43.578125 -4.515625 C 43.578125 -5.328125 50.046875 -16.738281 62.984375 -38.75 C 75.921875 -60.769531 82.390625 -72.773438 82.390625 -74.765625 C 82.390625 -76.765625 81.191406 -77.765625 78.796875 -77.765625 C 76.398438 -77.765625 71.457031 -74.179688 63.96875 -67.015625 C 43.375 -47.316406 27.421875 -27.742188 16.109375 -8.296875 C 15.378906 -7.160156 13.957031 -5.367188 11.84375 -2.921875 C 9.726562 -0.484375 8.300781 0.734375 7.5625 0.734375 Z M 7.5625 0.734375 "/></g></g><g transform="translate(866.884213, 306.603665)"><g><path d="M 91.546875 -91.3125 C 91.546875 -85.9375 89.367188 -81.210938 85.015625 -77.140625 C 80.660156 -73.078125 75.71875 -71.046875 70.1875 -71.046875 C 68.394531 -71.046875 67.210938 -71.472656 66.640625 -72.328125 C 66.078125 -73.179688 65.796875 -74.300781 65.796875 -75.6875 C 65.796875 -77.070312 65.957031 -78.414062 66.28125 -79.71875 C 63.351562 -78.738281 60.097656 -77.226562 56.515625 -75.1875 C 52.929688 -73.15625 48.535156 -70.144531 43.328125 -66.15625 C 38.117188 -62.175781 35.515625 -59.207031 35.515625 -57.25 C 35.515625 -56.601562 36.472656 -56.28125 38.390625 -56.28125 C 40.304688 -56.28125 43.253906 -56.945312 47.234375 -58.28125 C 51.222656 -59.625 54.007812 -60.296875 55.59375 -60.296875 C 57.1875 -60.296875 58.226562 -60.21875 58.71875 -60.0625 C 59.769531 -59.488281 60.90625 -58.242188 62.125 -56.328125 C 63.351562 -54.421875 63.96875 -52.914062 63.96875 -51.8125 C 63.96875 -50.71875 62.910156 -49.273438 60.796875 -47.484375 C 58.679688 -45.691406 56.28125 -44.328125 53.59375 -43.390625 C 50.90625 -42.460938 49.113281 -41.753906 48.21875 -41.265625 C 31.050781 -31.660156 22.46875 -25.066406 22.46875 -21.484375 C 22.46875 -15.140625 27.878906 -11.96875 38.703125 -11.96875 C 45.617188 -11.96875 52.578125 -14.164062 59.578125 -18.5625 C 65.515625 -22.300781 70.863281 -26.101562 75.625 -29.96875 C 80.382812 -33.832031 83.394531 -36.210938 84.65625 -37.109375 C 85.914062 -38.003906 86.875 -38.453125 87.53125 -38.453125 C 89.644531 -38.453125 90.703125 -36.09375 90.703125 -31.375 C 90.703125 -26.65625 90.414062 -23.539062 89.84375 -22.03125 C 89.269531 -20.53125 87.644531 -18.679688 84.96875 -16.484375 C 67.550781 -2.316406 51.066406 4.765625 35.515625 4.765625 C 27.222656 4.765625 20.59375 3.625 15.625 1.34375 C 6.507812 -2.8125 1.953125 -9.160156 1.953125 -17.703125 C 1.953125 -28.929688 9.722656 -37.4375 25.265625 -43.21875 C 22.171875 -44.59375 20.175781 -46.359375 19.28125 -48.515625 C 18.382812 -50.679688 17.9375 -54.144531 17.9375 -58.90625 C 17.9375 -63.664062 20.15625 -68.707031 24.59375 -74.03125 C 29.03125 -79.363281 34.460938 -83.738281 40.890625 -87.15625 C 55.210938 -94.882812 67.988281 -98.75 79.21875 -98.75 C 81.90625 -98.75 84.628906 -98.097656 87.390625 -96.796875 C 90.160156 -95.492188 91.546875 -93.664062 91.546875 -91.3125 Z M 91.546875 -91.3125 "/></g></g></g></svg>