<svg width="5294" height="1795" xmlns="http://www.w3.org/2000/svg" xmlns:xlink="http://www.w3.org/1999/xlink" xml:space="preserve" overflow="hidden"><g transform="translate(285 -149)"><path d="M311 658 1545.25 658" stroke="#7D7D7D" stroke-width="13.75" stroke-linecap="square" stroke-linejoin="round" stroke-miterlimit="10" fill="none" fill-rule="evenodd"/><path d="M311 375 1545.25 375" stroke="#7D7D7D" stroke-width="13.75" stroke-linecap="square" stroke-linejoin="round" stroke-miterlimit="10" fill="none" fill-rule="evenodd"/><path d="M1035 851 2272.5 851" stroke="#7D7D7D" stroke-width="13.75" stroke-linecap="square" stroke-linejoin="round" stroke-miterlimit="10" fill="none" fill-rule="evenodd"/><path d="M311 1628 2272.67 1628" stroke="#7D7D7D" stroke-width="13.75" stroke-linecap="square" stroke-linejoin="round" stroke-miterlimit="10" fill="none" fill-rule="evenodd"/><rect x="1021" y="995" width="535" height="485" stroke="#FFFFFF" stroke-width="5.72917" stroke-linejoin="round" stroke-miterlimit="10" fill="#D04A02"/><text fill="#FFFFFF" font-family="Arial,Arial_MSFontService,sans-serif" font-weight="400" font-size="64" transform="matrix(1 0 0 1 1220.78 1145)">BVG</text><text fill="#FFFFFF" font-family="Arial,Arial_MSFontService,sans-serif" font-weight="400" font-size="64" transform="matrix(1 0 0 1 1117.93 1222)">Compulsory </text><text fill="#FFFFFF" font-family="Arial,Arial_MSFontService,sans-serif" font-weight="400" font-size="64" transform="matrix(1 0 0 1 1109.06 1299)">occupational </text><text fill="#FFFFFF" font-family="Arial,Arial_MSFontService,sans-serif" font-weight="400" font-size="64" transform="matrix(1 0 0 1 1160.62 1376)">pensions</text><rect x="4736" y="766" width="198" height="744" fill="#FFE9C8"/><rect x="2978.5" y="935.5" width="535" height="589" stroke="#FFFFFF" stroke-width="6.875" stroke-linejoin="round" stroke-miterlimit="10" fill="#D04A02"/><text fill="#FFFFFF" font-family="Arial,Arial_MSFontService,sans-serif" font-weight="400" font-size="64" transform="matrix(1 0 0 1 3024.94 1215)">BVG retirement </text><text fill="#FFFFFF" font-family="Arial,Arial_MSFontService,sans-serif" font-weight="400" font-size="64" transform="matrix(1 0 0 1 3136.96 1292)">savings</text><path d="M2897 852 3500.85 852.001" stroke="#464646" stroke-width="13.75" stroke-linecap="square" stroke-linejoin="round" stroke-miterlimit="10" fill="none" fill-rule="evenodd"/><rect x="2978.5" y="862.5" width="535" height="74.9999" stroke="#FFFFFF" stroke-width="6.875" stroke-linejoin="round" stroke-miterlimit="10" fill="#EB8C00"/><path d="M4.58331-4.58335 4.5836 67.6042-4.58306 67.6042-4.58335-4.58331ZM13.7503 63.0208 0.000360892 90.5208-13.7497 63.0209Z" fill="#EB8C00" transform="matrix(1 0 0 -1 3536.5 935.021)"/><path d="M3561 897C3561 861.101 3590.1 832 3626 832 3661.9 832 3691 861.101 3691 897 3691 932.899 3661.9 962 3626 962 3590.1 962 3561 932.899 3561 897Z" fill="#EB8C00" fill-rule="evenodd"/><text fill="#FFFFFF" font-family="Arial,Arial_MSFontService,sans-serif" font-weight="400" font-size="92" transform="matrix(1 0 0 1 3600.33 931)">2</text><rect x="3981.5" y="771.5" width="343" height="739" stroke="#FFFFFF" stroke-width="6.875" stroke-linejoin="round" stroke-miterlimit="10" fill="#FD8A4D"/><text fill="#FFFFFF" font-family="Arial,Arial_MSFontService,sans-serif" font-weight="400" font-size="64" transform="matrix(1 0 0 1 4036.71 1125)">Pension </text><text fill="#FFFFFF" font-family="Arial,Arial_MSFontService,sans-serif" font-weight="400" font-size="64" transform="matrix(1 0 0 1 4031.85 1202)">(current)</text><path d="M27.5001-6.87498 421.338-6.87463 421.338 6.87537 27.5001 6.87502ZM27.5 2.39455e-05 41.25 20.625 0 0 41.25-20.625Z" fill="#7D7D7D" transform="matrix(-1 0 0 1 3950.46 1169)"/><text fill="#EB8C00" font-family="Arial,Arial_MSFontService,sans-serif" font-weight="400" font-size="55" transform="matrix(1 0 0 1 4792.91 819)">6.8%</text><text fill="#EB8C00" font-family="Arial,Arial_MSFontService,sans-serif" font-weight="400" font-size="55" transform="matrix(1 0 0 1 4792.91 934)">6.0%</text><rect x="4521.5" y="772.5" width="170" height="173" stroke="#FFFFFF" stroke-width="6.875" stroke-linejoin="round" stroke-miterlimit="10" fill="#EB8C00"/><path d="M4541 858.5C4541 822.878 4570.1 794 4606 794 4641.9 794 4671 822.878 4671 858.5 4671 894.122 4641.9 923 4606 923 4570.1 923 4541 894.122 4541 858.5Z" fill="#FFE9C8" fill-rule="evenodd"/><text fill="#EB8C00" font-family="Arial,Arial_MSFontService,sans-serif" font-weight="400" font-size="92" transform="matrix(1 0 0 1 4580.54 893)">1</text><path d="M4769.08 773.917 4769.08 915.057 4759.92 915.057 4759.92 773.917ZM4778.25 910.473 4764.5 937.973 4750.75 910.473Z" fill="#EB8C00"/><rect x="2526.5" y="773.5" width="366" height="148" stroke="#7D7D7D" stroke-width="3.4375" stroke-linejoin="round" stroke-miterlimit="10" fill="#FFFFFF"/><text fill="#464646" font-family="Arial,Arial_MSFontService,sans-serif" font-weight="700" font-size="50" transform="matrix(1 0 0 1 2654.21 836)">BVG </text><text fill="#464646" font-family="Arial,Arial_MSFontService,sans-serif" font-weight="700" font-size="50" transform="matrix(1 0 0 1 2574.28 897)">deductions</text><rect x="2753" y="434" width="541" height="109" fill="#FFFFFF"/><text font-family="Arial,Arial_MSFontService,sans-serif" font-weight="400" font-size="55" transform="matrix(1 0 0 1 2785.99 476)">Solidarity pension </text><text font-family="Arial,Arial_MSFontService,sans-serif" font-weight="400" font-size="55" transform="matrix(1 0 0 1 2785.99 542)">supplements</text><rect x="4348.5" y="772.5" width="170" height="173" stroke="#FFFFFF" stroke-width="6.875" stroke-linejoin="round" stroke-miterlimit="10" fill="#A6A6A6" fill-opacity="0.4"/><path d="M4368 858.5C4368 822.878 4397.1 794 4433 794 4468.9 794 4498 822.878 4498 858.5 4498 894.122 4468.9 923 4433 923 4397.1 923 4368 894.122 4368 858.5Z" fill="#EB8C00" fill-rule="evenodd"/><text fill="#FFFFFF" font-family="Arial,Arial_MSFontService,sans-serif" font-weight="400" font-size="92" transform="matrix(1 0 0 1 4407.35 893)">5</text><rect x="2673" y="198" width="832" height="136" fill="#464646"/><text fill="#FFB600" font-family="Arial,Arial_MSFontService,sans-serif" font-weight="700" font-size="55" transform="matrix(1 0 0 1 2754.02 253)">Retirement savings in the </text><text fill="#FFB600" font-family="Arial,Arial_MSFontService,sans-serif" font-weight="700" font-size="55" transform="matrix(1 0 0 1 2915.28 319)">pension fund</text><rect x="3977" y="198" width="722" height="136" fill="#464646"/><text fill="#FFB600" font-family="Arial,Arial_MSFontService,sans-serif" font-weight="700" font-size="55" transform="matrix(1 0 0 1 4113.06 253)">Pension from the </text><text fill="#FFB600" font-family="Arial,Arial_MSFontService,sans-serif" font-weight="700" font-size="55" transform="matrix(1 0 0 1 4164.62 319)">pension fund</text><rect x="1745" y="862" width="534" height="756" stroke="#FFFFFF" stroke-width="5.72917" stroke-linejoin="round" stroke-miterlimit="10" fill="#D04A02"/><text fill="#FFFFFF" font-family="Arial,Arial_MSFontService,sans-serif" font-weight="400" font-size="64" transform="matrix(1 0 0 1 1830.28 966)">BVG insured </text><text fill="#FFFFFF" font-family="Arial,Arial_MSFontService,sans-serif" font-weight="400" font-size="64" transform="matrix(1 0 0 1 1926.53 1043)">salary </text><text fill="#FFFFFF" font-family="Arial,Arial_MSFontService,sans-serif" font-weight="400" font-size="55" transform="matrix(1 0 0 1 1850.63 1111)">(coordinated)</text><text fill="#FFFFFF" font-family="Arial,Arial_MSFontService,sans-serif" font-weight="400" font-size="55" transform="matrix(1 0 0 1 1777.87 1205)">Minimum:</text><text fill="#FFFFFF" font-family="Arial,Arial_MSFontService,sans-serif" font-weight="400" font-size="55" transform="matrix(1 0 0 1 1777.87 1271)">3,675 (old)</text><text fill="#FFFFFF" font-family="Arial,Arial_MSFontService,sans-serif" font-weight="400" font-size="55" transform="matrix(1 0 0 1 1777.87 1337)">15,876 (new)</text><text fill="#FFFFFF" font-family="Arial,Arial_MSFontService,sans-serif" font-weight="400" font-size="55" transform="matrix(1 0 0 1 1777.87 1430)">Maximum: </text><text fill="#FFFFFF" font-family="Arial,Arial_MSFontService,sans-serif" font-weight="400" font-size="55" transform="matrix(1 0 0 1 1777.87 1496)">62,475 (old)</text><text fill="#FFFFFF" font-family="Arial,Arial_MSFontService,sans-serif" font-weight="400" font-size="55" transform="matrix(1 0 0 1 1777.87 1562)">70,560 (new)</text><rect x="1021" y="1641" width="535" height="294" stroke="#FFFFFF" stroke-width="5.72917" stroke-linejoin="round" stroke-miterlimit="10" fill="#7D7D7D"/><text fill="#FFFFFF" font-family="Arial,Arial_MSFontService,sans-serif" font-weight="400" font-size="64" transform="matrix(1 0 0 1 1222.5 1773)">AHV</text><text fill="#FFFFFF" font-family="Arial,Arial_MSFontService,sans-serif" font-weight="400" font-size="64" transform="matrix(1 0 0 1 1076.97 1850)">State pensions</text><rect x="496" y="607" width="363" height="109" fill="#FFFFFF"/><text font-family="Arial,Arial_MSFontService,sans-serif" font-weight="400" font-size="55" transform="matrix(1 0 0 1 537.492 681)">88,200CHF</text><rect x="1021" y="383" width="535" height="262" stroke="#FFFFFF" stroke-width="5.72917" stroke-linejoin="round" stroke-miterlimit="10" fill="#682501"/><text fill="#EB8C00" font-family="Arial,Arial_MSFontService,sans-serif" font-weight="400" font-size="50" transform="matrix(1 0 0 1 485.117 1518)">old 22,050CHF</text><text fill="#EB8C00" font-family="Arial,Arial_MSFontService,sans-serif" font-weight="400" font-size="50" transform="matrix(1 0 0 1 459.909 1598)">new 19,845CHF</text><text fill="#EB8C00" font-family="Arial,Arial_MSFontService,sans-serif" font-weight="400" font-size="50" transform="matrix(1 0 0 1 485.117 1052)">old 25,725CHF</text><rect x="1021" y="862" width="535" height="129" stroke="#FFFFFF" stroke-width="5.72917" stroke-linejoin="round" stroke-miterlimit="10" fill="#EB8C00"/><text fill="#EB8C00" font-family="Arial,Arial_MSFontService,sans-serif" font-weight="400" font-size="50" transform="matrix(1 0 0 1 351.055 913)">new 20% AHV salary</text><text fill="#EB8C00" font-family="Arial,Arial_MSFontService,sans-serif" font-weight="400" font-size="41" transform="matrix(1 0 0 1 485.69 965)">(max. 88,200CHF)</text><rect x="1021" y="667" width="535" height="171" stroke="#FFFFFF" stroke-width="5.72917" stroke-linejoin="round" stroke-miterlimit="10" fill="#9C3702"/><rect x="1021" y="202" width="535" height="135" fill="#464646"/><text fill="#FFB600" font-family="Arial,Arial_MSFontService,sans-serif" font-weight="700" font-size="55" transform="matrix(1 0 0 1 1144.01 290)">AHV salary</text><rect x="1741" y="198" width="538" height="136" fill="#464646"/><text fill="#FFB600" font-family="Arial,Arial_MSFontService,sans-serif" font-weight="700" font-size="46" transform="matrix(1 0 0 1 1772.7 256)">BVG deductions </text><text fill="#FFB600" font-family="Arial,Arial_MSFontService,sans-serif" font-weight="400" font-size="46" transform="matrix(1 0 0 1 2141.08 256)">(from </text><text fill="#FFB600" font-family="Arial,Arial_MSFontService,sans-serif" font-weight="400" font-size="46" transform="matrix(1 0 0 1 1822.81 311)">the insured salary)</text><path d="M3643 369 3643 620 3894 620 3894 369 3643 369ZM3883.3 609.299 3653.7 609.299 3653.7 379.701 3883.3 379.701 3883.3 609.299Z" fill="#7D7D7D" fill-rule="evenodd"/><rect x="3675" y="578" width="186" height="11" fill="#7D7D7D"/><path d="M3861 458.279 3774.85 458.279 3774.85 441.86 3794.13 441.86 3794.13 451.906 3827 451.906 3827 416.82 3804.87 416.82 3804.87 404 3764.08 404 3764.08 458.279 3675 458.279 3675 469 3861 469 3861 458.279ZM3816.27 427.616 3816.27 441.111 3804.87 441.111 3804.87 427.616 3816.27 427.616ZM3774.85 414.721 3794.13 414.721 3794.13 416.82 3794.13 431.139 3774.85 431.139 3774.85 414.721Z" fill="#7D7D7D" fill-rule="evenodd"/><path d="M3721 572 3721 475 3689 475 3689 572 3721 572ZM3699.67 485.786 3710.33 485.786 3710.33 561.214 3699.67 561.214 3699.67 485.786Z" fill="#7D7D7D" fill-rule="evenodd"/><path d="M3763 572 3763 475 3731 475 3731 572 3763 572ZM3741.67 485.786 3752.33 485.786 3752.33 561.214 3741.67 561.214 3741.67 485.786Z" fill="#7D7D7D" fill-rule="evenodd"/><path d="M3805 572 3805 475 3773 475 3773 572 3805 572ZM3783.69 485.786 3794.31 485.786 3794.31 561.214 3783.69 561.214 3783.69 485.786Z" fill="#7D7D7D" fill-rule="evenodd"/><path d="M3846 572 3846 475 3814 475 3814 572 3846 572ZM3824.67 485.786 3835.33 485.786 3835.33 561.214 3824.67 561.214 3824.67 485.786Z" fill="#7D7D7D" fill-rule="evenodd"/><rect x="4348.5" y="945.5" width="343" height="565" stroke="#FFFFFF" stroke-width="6.875" stroke-linejoin="round" stroke-miterlimit="10" fill="#D04A02"/><text fill="#FFFFFF" font-family="Arial,Arial_MSFontService,sans-serif" font-weight="400" font-size="64" transform="matrix(1 0 0 1 4403.72 1135)">Pension </text><text fill="#FFFFFF" font-family="Arial,Arial_MSFontService,sans-serif" font-weight="400" font-size="64" transform="matrix(1 0 0 1 4444.97 1212)">(after </text><text fill="#FFFFFF" font-family="Arial,Arial_MSFontService,sans-serif" font-weight="400" font-size="64" transform="matrix(1 0 0 1 4451.57 1289)">BVG </text><text fill="#FFFFFF" font-family="Arial,Arial_MSFontService,sans-serif" font-weight="400" font-size="64" transform="matrix(1 0 0 1 4416.62 1366)">reform)</text><path d="M847 1541.5C847 1505.88 876.102 1477 912 1477 947.898 1477 977 1505.88 977 1541.5 977 1577.12 947.898 1606 912 1606 876.102 1606 847 1577.12 847 1541.5Z" fill="#EB8C00" fill-rule="evenodd"/><text fill="#FFFFFF" font-family="Arial,Arial_MSFontService,sans-serif" font-weight="400" font-size="92" transform="matrix(1 0 0 1 886.651 1575)">3</text><path d="M1009.08 1489.92 1009.08 1588.19 999.917 1588.19 999.917 1489.92ZM1018.25 1583.61 1004.5 1611.11 990.75 1583.61Z" fill="#EB8C00"/><path d="M4.58332-4.58335 4.58362 93.692-4.58304 93.692-4.58335-4.58332ZM13.7503 89.1086 0.000360892 116.609-13.7497 89.1087Z" fill="#EB8C00" transform="matrix(1 0 0 -1 1004.5 984.109)"/><path d="M2707.21 775.996 2707.21 492.5C2707.21 491.234 2708.23 490.208 2709.5 490.208L3620.22 490.208 3620.22 494.792 2709.5 494.792 2711.79 492.5 2711.79 775.996ZM3615.64 478.75 3643.14 492.5 3615.64 506.25Z" fill="#7D7D7D"/><path d="M3223 492C3223 456.101 3252.1 427 3288 427 3323.9 427 3353 456.101 3353 492 3353 527.898 3323.9 557 3288 557 3252.1 557 3223 527.898 3223 492Z" fill="#EB8C00" fill-rule="evenodd"/><text fill="#FFFFFF" font-family="Arial,Arial_MSFontService,sans-serif" font-weight="400" font-size="92" transform="matrix(1 0 0 1 3262.53 526)">5</text><path d="M-2.29167-2.29167 308.425-2.29167C309.69-2.29167 310.716-1.26565 310.716 0L310.716 246.043 306.133 246.043 306.133 0 308.425 2.29167-2.29167 2.29167ZM322.175 241.459 308.425 268.959 294.675 241.459Z" fill="#7D7D7D" transform="matrix(1.83697e-16 1 1 -1.83697e-16 2709.5 921.5)"/><rect x="2512" y="999" width="391" height="109" fill="#FFFFFF"/><text font-family="Arial,Arial_MSFontService,sans-serif" font-weight="400" font-size="55" transform="matrix(1 0 0 1 2610.27 1041)">Savings </text><text font-family="Arial,Arial_MSFontService,sans-serif" font-weight="400" font-size="55" transform="matrix(1 0 0 1 2552.41 1107)">contributions</text><path d="M3890.21 492.208 4433 492.208C4434.27 492.208 4435.29 493.234 4435.29 494.5L4435.29 749.732 4430.71 749.732 4430.71 494.5 4433 496.792 3890.21 496.792ZM4446.75 745.148 4433 772.648 4419.25 745.148Z" fill="#7D7D7D"/><rect x="4108" y="537" width="643" height="175" fill="#FFFFFF"/><text fill="#EB8C00" font-family="Arial,Arial_MSFontService,sans-serif" font-weight="700" font-size="55" transform="matrix(1 0 0 1 4160.53 611)">Pension supplement </text><text fill="#EB8C00" font-family="Arial,Arial_MSFontService,sans-serif" font-weight="700" font-size="55" transform="matrix(1 0 0 1 4155.95 677)">transition generation</text><text fill="#EB8C00" font-family="Arial,Arial_MSFontService,sans-serif" font-weight="700" font-size="55" transform="matrix(6.12323e-17 1 -1 6.12323e-17 4828.74 991)">Conversion rate</text><path d="M-265.156 151.844-249.687 151.844-249.687 162.156-265.156 162.156ZM-239.375 151.844-229.062 151.844-229.062 162.156-239.375 162.156ZM-218.75 151.844-208.437 151.844-208.437 162.156-218.75 162.156ZM-198.125 151.844-187.812 151.844-187.812 162.156-198.125 162.156ZM-177.5 151.844-167.187 151.844-167.187 162.156-177.5 162.156ZM-156.875 151.844-146.562 151.844-146.562 162.156-156.875 162.156ZM-136.25 151.844-125.937 151.844-125.937 162.156-136.25 162.156ZM-115.625 151.844-105.312 151.844-105.312 162.156-115.625 162.156ZM-94.9999 151.844-84.6874 151.844-84.6874 162.156-94.9999 162.156ZM-74.3749 151.844-64.0624 151.844-64.0624 162.156-74.3749 162.156ZM-53.7499 151.844-43.4374 151.844-43.4374 162.156-53.7499 162.156ZM-33.1249 151.844-22.8124 151.844-22.8124 162.156-33.1249 162.156ZM-12.4999 151.844-2.18738 151.844-2.18738 162.156-12.4999 162.156ZM8.12512 151.844 18.4376 151.844 18.4376 162.156 8.12512 162.156ZM28.7501 151.844 39.0626 151.844 39.0626 162.156 28.7501 162.156ZM49.3751 151.844 59.6876 151.844 59.6876 162.156 49.3751 162.156ZM70.0001 151.844 80.3126 151.844 80.3126 162.156 70.0001 162.156ZM90.6251 151.844 100.938 151.844 100.938 162.156 90.6251 162.156ZM111.25 151.844 121.563 151.844 121.563 162.156 111.25 162.156ZM131.875 151.844 142.188 151.844 142.188 162.156 131.875 162.156ZM152.5 151.844 162.813 151.844 162.813 162.156 152.5 162.156ZM173.125 151.844 183.438 151.844 183.438 162.156 173.125 162.156ZM193.75 151.844 204.063 151.844 204.063 162.156 193.75 162.156ZM214.375 151.844 224.688 151.844 224.688 162.156 214.375 162.156ZM235 151.844 245.313 151.844 245.313 162.156 235 162.156ZM255.625 151.844 265.938 151.844 265.938 162.156 255.625 162.156ZM276.25 151.844 286.563 151.844 286.563 162.156 276.25 162.156ZM296.875 151.844 307.188 151.844 307.188 162.156 296.875 162.156ZM317.5 151.844 327.813 151.844 327.813 162.156 317.5 162.156ZM338.125 151.844 348.438 151.844 348.438 162.156 338.125 162.156ZM358.75 151.844 369.063 151.844 369.063 162.156 358.75 162.156ZM379.375 151.844 389.688 151.844 389.688 162.156 379.375 162.156ZM400 151.844 410.313 151.844 410.313 162.156 400 162.156ZM420.625 151.844 430.938 151.844 430.938 162.156 420.625 162.156ZM441.25 151.844 451.563 151.844 451.563 162.156 441.25 162.156ZM461.875 151.844 472.188 151.844 472.188 162.156 461.875 162.156ZM482.5 151.844 492.813 151.844 492.813 162.156 482.5 162.156ZM503.125 151.844 513.438 151.844 513.438 162.156 503.125 162.156ZM523.75 151.844 534.063 151.844 534.063 162.156 523.75 162.156ZM544.375 151.844 554.688 151.844 554.688 162.156 544.375 162.156ZM565 151.844 575.313 151.844 575.313 162.156 565 162.156ZM585.625 151.844 595.938 151.844 595.938 162.156 585.625 162.156ZM606.25 151.844 616.563 151.844 616.563 162.156 606.25 162.156ZM626.875 151.844 637.188 151.844 637.188 162.156 626.875 162.156ZM647.5 151.844 657.813 151.844 657.813 162.156 647.5 162.156ZM668.125 151.844 678.438 151.844 678.438 162.156 668.125 162.156ZM688.75 151.844 699.063 151.844 699.063 162.156 688.75 162.156ZM709.375 151.844 719.688 151.844 719.688 162.156 709.375 162.156ZM730 151.844 740.313 151.844 740.313 162.156 730 162.156ZM750.625 151.844 760.938 151.844 760.938 162.156 750.625 162.156ZM771.25 151.844 781.563 151.844 781.563 162.156 771.25 162.156ZM791.875 151.844 802.188 151.844 802.188 162.156 791.875 162.156ZM812.5 151.844 822.813 151.844 822.813 162.156 812.5 162.156ZM833.125 151.844 843.438 151.844 843.438 162.156 833.125 162.156ZM853.75 151.844 864.063 151.844 864.063 162.156 853.75 162.156ZM874.375 151.844 884.688 151.844 884.688 162.156 874.375 162.156ZM895 151.844 905.313 151.844 905.313 162.156 895 162.156ZM915.625 151.844 925.938 151.844 925.938 162.156 915.625 162.156ZM936.25 151.844 946.563 151.844 946.563 162.156 936.25 162.156ZM956.875 151.844 967.188 151.844 967.188 162.156 956.875 162.156ZM977.5 151.844 987.813 151.844 987.813 162.156 977.5 162.156ZM998.125 151.844 1008.44 151.844 1008.44 162.156 998.125 162.156ZM1018.75 151.844 1029.06 151.844 1029.06 162.156 1018.75 162.156ZM1039.38 151.844 1049.69 151.844 1049.69 162.156 1039.38 162.156ZM1060 151.844 1070.31 151.844 1070.31 162.156 1060 162.156ZM1080.63 151.844 1090.94 151.844 1090.94 162.156 1080.63 162.156ZM1101.25 151.844 1111.56 151.844 1111.56 162.156 1101.25 162.156ZM1121.88 151.844 1132.19 151.844 1132.19 162.156 1121.88 162.156ZM1142.5 151.844 1152.81 151.844 1152.81 162.156 1142.5 162.156ZM1163.13 151.844 1173.44 151.844 1173.44 162.156 1163.13 162.156ZM1183.75 151.844 1194.06 151.844 1194.06 162.156 1183.75 162.156ZM1204.38 151.844 1214.69 151.844 1214.69 162.156 1204.38 162.156ZM1225 151.844 1235.31 151.844 1235.31 162.156 1225 162.156ZM1245.63 151.844 1255.94 151.844 1255.94 162.156 1245.63 162.156ZM1266.25 151.844 1276.56 151.844 1276.56 162.156 1266.25 162.156ZM1286.88 151.844 1297.19 151.844 1297.19 162.156 1286.88 162.156ZM1307.5 151.844 1317.81 151.844 1317.81 162.156 1307.5 162.156ZM1328.13 151.844 1338.44 151.844 1338.44 162.156 1328.13 162.156ZM1348.75 151.844 1359.06 151.844 1359.06 162.156 1348.75 162.156ZM1369.38 151.844 1379.69 151.844 1379.69 162.156 1369.38 162.156ZM1390 151.844 1400.31 151.844 1400.31 162.156 1390 162.156ZM1410.63 151.844 1420.94 151.844 1420.94 162.156 1410.63 162.156ZM1431.25 151.844 1441.56 151.844 1441.56 162.156 1431.25 162.156ZM1451.88 151.844 1462.19 151.844 1462.19 162.156 1451.88 162.156ZM1472.5 151.844 1482.81 151.844 1482.81 162.156 1472.5 162.156ZM1493.13 151.844 1503.44 151.844 1503.44 162.156 1493.13 162.156ZM1513.75 151.844 1524.06 151.844 1524.06 162.156 1513.75 162.156ZM1534.38 151.844 1544.69 151.844 1544.69 162.156 1534.38 162.156ZM1555 151.844 1565.31 151.844 1565.31 162.156 1555 162.156ZM1575.63 151.844 1585.94 151.844 1585.94 162.156 1575.63 162.156ZM1596.25 151.844 1606.56 151.844 1606.56 162.156 1596.25 162.156ZM1616.88 151.844 1627.19 151.844 1627.19 162.156 1616.88 162.156ZM1637.5 151.844 1647.81 151.844 1647.81 162.156 1637.5 162.156ZM1658.13 151.844 1668.44 151.844 1668.44 162.156 1658.13 162.156ZM1678.75 151.844 1689.06 151.844 1689.06 162.156 1678.75 162.156ZM1699.38 151.844 1709.69 151.844 1709.69 162.156 1699.38 162.156ZM1720 151.844 1730.31 151.844 1730.31 162.156 1720 162.156ZM1740.63 151.844 1750.94 151.844 1750.94 162.156 1740.63 162.156ZM1761.25 151.844 1771.56 151.844 1771.56 162.156 1761.25 162.156ZM1781.88 151.844 1792.19 151.844 1792.19 162.156 1781.88 162.156ZM1802.5 151.844 1812.81 151.844 1812.81 162.156 1802.5 162.156ZM1823.13 151.844 1833.44 151.844 1833.44 162.156 1823.13 162.156ZM1843.75 151.844 1854.06 151.844 1854.06 162.156 1843.75 162.156ZM1864.38 151.844 1874.69 151.844 1874.69 162.156 1864.38 162.156ZM1885 151.844 1895.31 151.844 1895.31 162.156 1885 162.156ZM1905.63 151.844 1915.94 151.844 1915.94 162.156 1905.63 162.156ZM1926.25 151.844 1936.56 151.844 1936.56 162.156 1926.25 162.156ZM1946.88 151.844 1957.19 151.844 1957.19 162.156 1946.88 162.156ZM1967.5 151.844 1977.81 151.844 1977.81 162.156 1967.5 162.156ZM1988.13 151.844 1998.44 151.844 1998.44 162.156 1988.13 162.156ZM2008.75 151.844 2019.06 151.844 2019.06 162.156 2008.75 162.156ZM2029.38 151.844 2039.69 151.844 2039.69 162.156 2029.38 162.156ZM2050 151.844 2060.31 151.844 2060.31 162.156 2050 162.156ZM2070.62 151.844 2080.94 151.844 2080.94 162.156 2070.62 162.156ZM2091.25 151.844 2101.56 151.844 2101.56 162.156 2091.25 162.156ZM2111.88 151.844 2122.19 151.844 2122.19 162.156 2111.88 162.156ZM2132.5 151.844 2142.81 151.844 2142.81 162.156 2132.5 162.156ZM2153.12 151.844 2163.44 151.844 2163.44 162.156 2153.12 162.156ZM2173.75 151.844 2184.06 151.844 2184.06 162.156 2173.75 162.156ZM2194.38 151.844 2204.69 151.844 2204.69 162.156 2194.38 162.156ZM2215 151.844 2225.31 151.844 2225.31 162.156 2215 162.156ZM2235.62 151.844 2245.94 151.844 2245.94 162.156 2235.62 162.156ZM2256.25 151.844 2266.56 151.844 2266.56 162.156 2256.25 162.156ZM2276.88 151.844 2287.19 151.844 2287.19 162.156 2276.88 162.156ZM2297.5 151.844 2307.81 151.844 2307.81 162.156 2297.5 162.156ZM2318.12 151.844 2328.44 151.844 2328.44 162.156 2318.12 162.156ZM2338.75 151.844 2349.06 151.844 2349.06 162.156 2338.75 162.156ZM2359.38 151.844 2369.69 151.844 2369.69 162.156 2359.38 162.156ZM2380 151.844 2390.31 151.844 2390.31 162.156 2380 162.156ZM2400.62 151.844 2410.94 151.844 2410.94 162.156 2400.62 162.156ZM2421.25 151.844 2431.56 151.844 2431.56 162.156 2421.25 162.156ZM2441.88 151.844 2451.38 151.844C2454.23 151.844 2456.54 154.152 2456.54 157L2456.54 157.805 2446.23 157.805 2446.23 157 2451.38 162.156 2441.88 162.156ZM2456.54 168.118 2456.54 178.43 2446.23 178.43 2446.23 168.118ZM2456.54 188.743 2456.54 199.055 2446.23 199.055 2446.23 188.743ZM2456.54 209.368 2456.54 219.68 2446.23 219.68 2446.23 209.368ZM2456.54 229.993 2456.54 240.305 2446.23 240.305 2446.23 229.993ZM2456.54 250.618 2456.54 260.93 2446.23 260.93 2446.23 250.618ZM2456.54 271.243 2456.54 281.555 2446.23 281.555 2446.23 271.243ZM2456.54 291.868 2456.54 302.18 2446.23 302.18 2446.23 291.868ZM2456.54 312.493 2456.54 322.805 2446.23 322.805 2446.23 312.493ZM2456.54 333.118 2456.54 343.43 2446.23 343.43 2446.23 333.118ZM2456.54 353.743 2456.54 364.055 2446.23 364.055 2446.23 353.743ZM2456.54 374.368 2456.54 384.68 2446.23 384.68 2446.23 374.368ZM2456.54 394.993 2456.54 405.305 2446.23 405.305 2446.23 394.993ZM2456.54 415.618 2456.54 425.93 2446.23 425.93 2446.23 415.618ZM2456.54 436.243 2456.54 446.555 2446.23 446.555 2446.23 436.243ZM2456.54 456.868 2456.54 467.18 2446.23 467.18 2446.23 456.868ZM2456.54 477.493 2456.54 487.805 2446.23 487.805 2446.23 477.493ZM2456.54 498.118 2456.54 508.43 2446.23 508.43 2446.23 498.118ZM2456.54 518.743 2456.54 529.055 2446.23 529.055 2446.23 518.743ZM2456.54 539.368 2456.54 549.68 2446.23 549.68 2446.23 539.368ZM2456.54 559.993 2456.54 570.305 2446.23 570.305 2446.23 559.993ZM2456.54 580.618 2456.54 590.93 2446.23 590.93 2446.23 580.618ZM2456.54 601.243 2456.54 611.555 2446.23 611.555 2446.23 601.243ZM2456.54 621.868 2456.54 632.18 2446.23 632.18 2446.23 621.868ZM2456.54 642.493 2456.54 652.805 2446.23 652.805 2446.23 642.493ZM2456.54 663.118 2456.54 673.43 2446.23 673.43 2446.23 663.118ZM2456.54 683.743 2456.54 694.055 2446.23 694.055 2446.23 683.743ZM2456.54 704.368 2456.54 714.68 2446.23 714.68 2446.23 704.368ZM2456.54 724.993 2456.54 735.305 2446.23 735.305 2446.23 724.993ZM2456.54 745.618 2456.54 755.93 2446.23 755.93 2446.23 745.618ZM2456.54 766.243 2456.54 776.555 2446.23 776.555 2446.23 766.243ZM2456.54 786.868 2456.54 797.18 2446.23 797.18 2446.23 786.868ZM2456.54 807.493 2456.54 817.805 2446.23 817.805 2446.23 807.493ZM2456.54 828.118 2456.54 838.43 2446.23 838.43 2446.23 828.118ZM2456.54 848.743 2456.54 859.055 2446.23 859.055 2446.23 848.743ZM2456.54 869.368 2456.54 879.68 2446.23 879.68 2446.23 869.368ZM2456.54 889.993 2456.54 900.305 2446.23 900.305 2446.23 889.993ZM2456.54 910.618 2456.54 920.93 2446.23 920.93 2446.23 910.618ZM2456.54 931.243 2456.54 941.555 2446.23 941.555 2446.23 931.243ZM2456.54 951.868 2456.54 962.18 2446.23 962.18 2446.23 951.868ZM2456.54 972.493 2456.54 982.805 2446.23 982.805 2446.23 972.493ZM2456.54 993.118 2456.54 1003.43 2446.23 1003.43 2446.23 993.118ZM2456.54 1013.74 2456.54 1024.06 2446.23 1024.06 2446.23 1013.74ZM2456.54 1034.37 2456.54 1044.68 2446.23 1044.68 2446.23 1034.37ZM2456.54 1054.99 2456.54 1065.31 2446.23 1065.31 2446.23 1054.99ZM2456.54 1075.62 2456.54 1085.93 2446.23 1085.93 2446.23 1075.62ZM2456.54 1096.24 2456.54 1106.56 2446.23 1106.56 2446.23 1096.24ZM2456.54 1116.87 2456.54 1127.18 2446.23 1127.18 2446.23 1116.87ZM2456.54 1137.49 2456.54 1147.81 2446.23 1147.81 2446.23 1137.49ZM2456.54 1158.12 2456.54 1168.43 2446.23 1168.43 2446.23 1158.12ZM2456.54 1178.74 2456.54 1189.06 2446.23 1189.06 2446.23 1178.74ZM2456.54 1199.37 2456.54 1209.68 2446.23 1209.68 2446.23 1199.37ZM2456.54 1219.99 2456.54 1230.31 2446.23 1230.31 2446.23 1219.99ZM2456.54 1240.62 2456.54 1250.93 2446.23 1250.93 2446.23 1240.62ZM2456.54 1261.24 2456.54 1271.56 2446.23 1271.56 2446.23 1261.24ZM2456.54 1281.87 2456.54 1292.18 2446.23 1292.18 2446.23 1281.87ZM2456.54 1302.49 2456.54 1312.81 2446.23 1312.81 2446.23 1302.49ZM2456.54 1323.12 2456.54 1333.43 2446.23 1333.43 2446.23 1323.12ZM2456.54 1343.74 2456.54 1354.06 2446.23 1354.06 2446.23 1343.74ZM2456.54 1364.37 2456.54 1374.68 2446.23 1374.68 2446.23 1364.37ZM2456.54 1384.99 2456.54 1395.31 2446.23 1395.31 2446.23 1384.99ZM2456.54 1405.62 2456.54 1415.93 2446.23 1415.93 2446.23 1405.62ZM2456.54 1426.24 2456.54 1436.56 2446.23 1436.56 2446.23 1426.24ZM2456.54 1446.87 2456.54 1457.18 2446.23 1457.18 2446.23 1446.87ZM2456.54 1467.49 2456.54 1477.81 2446.23 1477.81 2446.23 1467.49ZM2456.54 1488.12 2456.54 1498.43 2446.23 1498.43 2446.23 1488.12ZM2456.54 1508.74 2456.54 1519.06 2446.23 1519.06 2446.23 1508.74ZM2456.54 1529.37 2456.54 1539.68 2446.23 1539.68 2446.23 1529.37ZM2456.54 1549.99 2456.54 1560.31 2446.23 1560.31 2446.23 1549.99ZM2456.54 1570.62 2456.54 1580.93 2446.23 1580.93 2446.23 1570.62ZM2456.54 1591.24 2456.54 1601.56 2446.23 1601.56 2446.23 1591.24ZM2456.54 1611.87 2456.54 1622.18 2446.23 1622.18 2446.23 1611.87ZM2456.54 1632.49 2456.54 1642.81 2446.23 1642.81 2446.23 1632.49ZM2456.54 1653.12 2456.54 1663.43 2446.23 1663.43 2446.23 1653.12ZM2456.54 1673.74 2456.54 1684.06 2446.23 1684.06 2446.23 1673.74ZM2456.54 1694.37 2456.54 1704.68 2446.23 1704.68 2446.23 1694.37ZM2456.54 1714.99 2456.54 1725.31 2446.23 1725.31 2446.23 1714.99ZM2456.54 1735.62 2456.54 1745.93 2446.23 1745.93 2446.23 1735.62ZM2456.54 1756.24 2456.54 1766.56 2446.23 1766.56 2446.23 1756.24ZM2456.54 1776.87 2456.54 1787.18 2446.23 1787.18 2446.23 1776.87ZM2456.54 1797.49 2456.54 1807.81 2446.23 1807.81 2446.23 1797.49ZM2456.54 1818.12 2456.54 1828.43 2446.23 1828.43 2446.23 1818.12ZM2456.54 1838.74 2456.54 1849.06 2446.23 1849.06 2446.23 1838.74ZM2456.54 1859.37 2456.54 1869.68 2446.23 1869.68 2446.23 1859.37ZM2456.54 1879.99 2456.54 1890.31 2446.23 1890.31 2446.23 1879.99ZM2456.54 1900.62 2456.54 1910.93 2446.23 1910.93 2446.23 1900.62ZM2456.54 1921.24 2456.54 1931.56 2446.23 1931.56 2446.23 1921.24ZM2456.33 1931.77 2466.64 1931.77 2466.64 1942.08 2456.33 1942.08ZM2476.95 1931.77 2487.27 1931.77 2487.27 1942.08 2476.95 1942.08ZM2497.58 1931.77 2507.89 1931.77 2507.89 1942.08 2497.58 1942.08ZM2518.2 1931.77 2528.52 1931.77 2528.52 1942.08 2518.2 1942.08ZM2538.83 1931.77 2549.14 1931.77 2549.14 1942.08 2538.83 1942.08ZM2559.45 1931.77 2569.77 1931.77 2569.77 1942.08 2559.45 1942.08ZM2580.08 1931.77 2590.39 1931.77 2590.39 1942.08 2580.08 1942.08ZM2600.7 1931.77 2611.02 1931.77 2611.02 1942.08 2600.7 1942.08ZM2621.33 1931.77 2631.64 1931.77 2631.64 1942.08 2621.33 1942.08ZM2641.95 1931.77 2652.27 1931.77 2652.27 1942.08 2641.95 1942.08ZM2662.58 1931.77 2672.89 1931.77 2672.89 1942.08 2662.58 1942.08ZM2683.2 1931.77 2693.52 1931.77 2693.52 1942.08 2683.2 1942.08ZM2703.83 1931.77 2714.14 1931.77 2714.14 1942.08 2703.83 1942.08ZM2724.45 1931.77 2734.77 1931.77 2734.77 1942.08 2724.45 1942.08ZM2745.08 1931.77 2755.39 1931.77 2755.39 1942.08 2745.08 1942.08ZM2765.7 1931.77 2776.02 1931.77 2776.02 1942.08 2765.7 1942.08ZM2786.33 1931.77 2796.64 1931.77 2796.64 1942.08 2786.33 1942.08ZM2806.95 1931.77 2817.27 1931.77 2817.27 1942.08 2806.95 1942.08ZM2827.58 1931.77 2837.89 1931.77 2837.89 1942.08 2827.58 1942.08ZM2848.2 1931.77 2858.52 1931.77 2858.52 1942.08 2848.2 1942.08ZM2868.83 1931.77 2879.14 1931.77 2879.14 1942.08 2868.83 1942.08ZM2889.45 1931.77 2899.77 1931.77 2899.77 1942.08 2889.45 1942.08ZM2910.08 1931.77 2920.39 1931.77 2920.39 1942.08 2910.08 1942.08ZM2930.7 1931.77 2941.02 1931.77 2941.02 1942.08 2930.7 1942.08ZM2951.33 1931.77 2961.64 1931.77 2961.64 1942.08 2951.33 1942.08ZM2971.95 1931.77 2982.27 1931.77 2982.27 1942.08 2971.95 1942.08ZM2992.58 1931.77 3002.89 1931.77 3002.89 1942.08 2992.58 1942.08ZM3013.2 1931.77 3023.52 1931.77 3023.52 1942.08 3013.2 1942.08ZM3033.83 1931.77 3044.14 1931.77 3044.14 1942.08 3033.83 1942.08ZM3054.45 1931.77 3064.77 1931.77 3064.77 1942.08 3054.45 1942.08ZM3075.08 1931.77 3085.39 1931.77 3085.39 1942.08 3075.08 1942.08ZM3095.7 1931.77 3106.02 1931.77 3106.02 1942.08 3095.7 1942.08ZM3116.33 1931.77 3126.64 1931.77 3126.64 1942.08 3116.33 1942.08ZM3136.95 1931.77 3147.27 1931.77 3147.27 1942.08 3136.95 1942.08ZM3157.58 1931.77 3167.89 1931.77 3167.89 1942.08 3157.58 1942.08ZM3178.2 1931.77 3188.52 1931.77 3188.52 1942.08 3178.2 1942.08ZM3198.83 1931.77 3209.14 1931.77 3209.14 1942.08 3198.83 1942.08ZM3219.45 1931.77 3229.77 1931.77 3229.77 1942.08 3219.45 1942.08ZM3240.08 1931.77 3250.39 1931.77 3250.39 1942.08 3240.08 1942.08ZM3260.7 1931.77 3271.02 1931.77 3271.02 1942.08 3260.7 1942.08ZM3281.33 1931.77 3291.64 1931.77 3291.64 1942.08 3281.33 1942.08ZM3301.95 1931.77 3312.27 1931.77 3312.27 1942.08 3301.95 1942.08ZM3322.58 1931.77 3332.89 1931.77 3332.89 1942.08 3322.58 1942.08ZM3343.2 1931.77 3353.52 1931.77 3353.52 1942.08 3343.2 1942.08ZM3363.83 1931.77 3374.14 1931.77 3374.14 1942.08 3363.83 1942.08ZM3384.45 1931.77 3394.77 1931.77 3394.77 1942.08 3384.45 1942.08ZM3405.08 1931.77 3415.39 1931.77 3415.39 1942.08 3405.08 1942.08ZM3425.7 1931.77 3436.02 1931.77 3436.02 1942.08 3425.7 1942.08ZM3446.33 1931.77 3456.64 1931.77 3456.64 1942.08 3446.33 1942.08ZM3466.95 1931.77 3477.27 1931.77 3477.27 1942.08 3466.95 1942.08ZM3487.58 1931.77 3497.89 1931.77 3497.89 1942.08 3487.58 1942.08ZM3508.2 1931.77 3518.52 1931.77 3518.52 1942.08 3508.2 1942.08ZM3528.83 1931.77 3539.14 1931.77 3539.14 1942.08 3528.83 1942.08ZM3549.45 1931.77 3559.77 1931.77 3559.77 1942.08 3549.45 1942.08ZM3570.08 1931.77 3580.39 1931.77 3580.39 1942.08 3570.08 1942.08ZM3590.7 1931.77 3601.02 1931.77 3601.02 1942.08 3590.7 1942.08ZM3611.33 1931.77 3621.64 1931.77 3621.64 1942.08 3611.33 1942.08ZM3631.95 1931.77 3642.27 1931.77 3642.27 1942.08 3631.95 1942.08ZM3652.58 1931.77 3662.89 1931.77 3662.89 1942.08 3652.58 1942.08ZM3673.2 1931.77 3683.52 1931.77 3683.52 1942.08 3673.2 1942.08ZM3693.83 1931.77 3704.14 1931.77 3704.14 1942.08 3693.83 1942.08ZM3714.45 1931.77 3724.77 1931.77 3724.77 1942.08 3714.45 1942.08ZM3735.08 1931.77 3745.39 1931.77 3745.39 1942.08 3735.08 1942.08ZM3755.7 1931.77 3766.02 1931.77 3766.02 1942.08 3755.7 1942.08ZM3776.33 1931.77 3786.64 1931.77 3786.64 1942.08 3776.33 1942.08ZM3796.95 1931.77 3807.27 1931.77 3807.27 1942.08 3796.95 1942.08ZM3817.58 1931.77 3827.89 1931.77 3827.89 1942.08 3817.58 1942.08ZM3838.2 1931.77 3848.52 1931.77 3848.52 1942.08 3838.2 1942.08ZM3858.83 1931.77 3869.14 1931.77 3869.14 1942.08 3858.83 1942.08ZM3879.45 1931.77 3889.77 1931.77 3889.77 1942.08 3879.45 1942.08ZM3900.08 1931.77 3910.39 1931.77 3910.39 1942.08 3900.08 1942.08ZM3920.7 1931.77 3931.02 1931.77 3931.02 1942.08 3920.7 1942.08ZM3941.33 1931.77 3951.64 1931.77 3951.64 1942.08 3941.33 1942.08ZM3961.95 1931.77 3972.27 1931.77 3972.27 1942.08 3961.95 1942.08ZM3982.58 1931.77 3992.89 1931.77 3992.89 1942.08 3982.58 1942.08ZM4003.2 1931.77 4013.52 1931.77 4013.52 1942.08 4003.2 1942.08ZM4023.83 1931.77 4034.14 1931.77 4034.14 1942.08 4023.83 1942.08ZM4044.45 1931.77 4054.77 1931.77 4054.77 1942.08 4044.45 1942.08ZM4065.08 1931.77 4075.39 1931.77 4075.39 1942.08 4065.08 1942.08ZM4085.7 1931.77 4096.02 1931.77 4096.02 1942.08 4085.7 1942.08ZM4106.33 1931.77 4116.64 1931.77 4116.64 1942.08 4106.33 1942.08ZM4126.95 1931.77 4137.27 1931.77 4137.27 1942.08 4126.95 1942.08ZM4147.58 1931.77 4157.89 1931.77 4157.89 1942.08 4147.58 1942.08ZM4168.2 1931.77 4178.52 1931.77 4178.52 1942.08 4168.2 1942.08ZM4188.83 1931.77 4199.14 1931.77 4199.14 1942.08 4188.83 1942.08ZM4209.45 1931.77 4219.77 1931.77 4219.77 1942.08 4209.45 1942.08ZM4230.08 1931.77 4240.39 1931.77 4240.39 1942.08 4230.08 1942.08ZM4250.7 1931.77 4261.02 1931.77 4261.02 1942.08 4250.7 1942.08ZM4271.33 1931.77 4281.64 1931.77 4281.64 1942.08 4271.33 1942.08ZM4291.95 1931.77 4302.27 1931.77 4302.27 1942.08 4291.95 1942.08ZM4312.58 1931.77 4322.89 1931.77 4322.89 1942.08 4312.58 1942.08ZM4333.2 1931.77 4343.52 1931.77 4343.52 1942.08 4333.2 1942.08ZM4353.83 1931.77 4364.14 1931.77 4364.14 1942.08 4353.83 1942.08ZM4374.45 1931.77 4384.77 1931.77 4384.77 1942.08 4374.45 1942.08ZM4395.08 1931.77 4405.39 1931.77 4405.39 1942.08 4395.08 1942.08ZM4415.7 1931.77 4426.02 1931.77 4426.02 1942.08 4415.7 1942.08ZM4436.33 1931.77 4446.64 1931.77 4446.64 1942.08 4436.33 1942.08ZM4456.95 1931.77 4467.27 1931.77 4467.27 1942.08 4456.95 1942.08ZM4477.58 1931.77 4487.89 1931.77 4487.89 1942.08 4477.58 1942.08ZM4498.2 1931.77 4508.52 1931.77 4508.52 1942.08 4498.2 1942.08ZM4518.83 1931.77 4529.14 1931.77 4529.14 1942.08 4518.83 1942.08ZM4539.45 1931.77 4549.77 1931.77 4549.77 1942.08 4539.45 1942.08ZM4560.08 1931.77 4570.39 1931.77 4570.39 1942.08 4560.08 1942.08ZM4580.7 1931.77 4591.02 1931.77 4591.02 1942.08 4580.7 1942.08ZM4601.33 1931.77 4611.64 1931.77 4611.64 1942.08 4601.33 1942.08ZM4621.95 1931.77 4632.27 1931.77 4632.27 1942.08 4621.95 1942.08ZM4642.58 1931.77 4652.89 1931.77 4652.89 1942.08 4642.58 1942.08ZM4663.2 1931.77 4673.52 1931.77 4673.52 1942.08 4663.2 1942.08ZM4683.83 1931.77 4694.14 1931.77 4694.14 1942.08 4683.83 1942.08ZM4704.45 1931.77 4714.77 1931.77 4714.77 1942.08 4704.45 1942.08ZM4725.08 1931.77 4735.39 1931.77 4735.39 1942.08 4725.08 1942.08ZM4745.7 1931.77 4756.02 1931.77 4756.02 1942.08 4745.7 1942.08ZM4766.33 1931.77 4776.64 1931.77 4776.64 1942.08 4766.33 1942.08ZM4786.95 1931.77 4797.27 1931.77 4797.27 1942.08 4786.95 1942.08ZM4807.58 1931.77 4817.89 1931.77 4817.89 1942.08 4807.58 1942.08ZM4828.2 1931.77 4838.52 1931.77 4838.52 1942.08 4828.2 1942.08ZM4848.83 1931.77 4859.14 1931.77 4859.14 1942.08 4848.83 1942.08ZM4869.45 1931.77 4877.05 1931.77 4877.05 1942.08 4869.45 1942.08Z" fill="#464646"/><rect x="1021" y="1483" width="535" height="129" stroke="#FFFFFF" stroke-width="5.72917" stroke-linejoin="round" stroke-miterlimit="10" fill="#EB8C00"/><path d="M115 774C83.2437 774 57.5001 774 57.5001 773.999L57.5001 387.001C57.5001 387 31.7564 387 0 387 31.7564 387 57.5001 387 57.5001 386.999L57.5001 0.000846457C57.5001 0.000378972 83.2437-3.15288e-15 115-7.04187e-15" stroke="#000000" stroke-width="9.16667" stroke-linecap="square" stroke-linejoin="round" stroke-miterlimit="10" fill="none" fill-rule="evenodd" transform="matrix(-1 0 0 1 1692.5 853.5)"/><rect x="-264.5" y="574.5" width="592" height="159" stroke="#7D7D7D" stroke-width="3.4375" stroke-linejoin="round" stroke-miterlimit="10" fill="#FFFFFF"/><text fill="#464646" font-family="Arial,Arial_MSFontService,sans-serif" font-weight="700" font-size="55" transform="matrix(1 0 0 1 -251.695 640)">Max. creditable BVG </text><text fill="#464646" font-family="Arial,Arial_MSFontService,sans-serif" font-weight="700" font-size="55" transform="matrix(1 0 0 1 -251.695 706)">salary</text><rect x="-264.5" y="326.5" width="592" height="92.9998" stroke="#7D7D7D" stroke-width="3.4375" stroke-linejoin="round" stroke-miterlimit="10" fill="#FFFFFF"/><text fill="#464646" font-family="Arial,Arial_MSFontService,sans-serif" font-weight="700" font-size="55" transform="matrix(1 0 0 1 -251.695 393)">AHV salary</text><rect x="-264.5" y="1575.5" width="592" height="92.0001" stroke="#7D7D7D" stroke-width="3.4375" stroke-linejoin="round" stroke-miterlimit="10" fill="#FFFFFF"/><text fill="#464646" font-family="Arial,Arial_MSFontService,sans-serif" font-weight="700" font-size="55" transform="matrix(1 0 0 1 -251.695 1641)">Entry threshold</text><rect x="-264.5" y="839.5" width="590" height="160" stroke="#7D7D7D" stroke-width="3.4375" stroke-linejoin="round" stroke-miterlimit="10" fill="#FFFFFF"/><text fill="#464646" font-family="Arial,Arial_MSFontService,sans-serif" font-weight="700" font-size="55" transform="matrix(1 0 0 1 -251.695 906)">Coordination </text><text fill="#464646" font-family="Arial,Arial_MSFontService,sans-serif" font-weight="700" font-size="55" transform="matrix(1 0 0 1 -251.695 972)">deduction</text><path d="M847 932C847 896.101 876.102 867 912 867 947.898 867 977 896.101 977 932 977 967.898 947.898 997 912 997 876.102 997 847 967.898 847 932Z" fill="#EB8C00" fill-rule="evenodd"/><text fill="#FFFFFF" font-family="Arial,Arial_MSFontService,sans-serif" font-weight="400" font-size="92" transform="matrix(1 0 0 1 886.651 966)">4</text></g></svg>